<?xml version="1.0" encoding="UTF-8"?>
<svg width="90px" height="92px" viewBox="0 0 90 92" version="1.1" xmlns="http://www.w3.org/2000/svg" xmlns:xlink="http://www.w3.org/1999/xlink">
    <!-- Generator: sketchtool 62 (101010) - https://sketch.com -->
    <title>F6B52959-DA24-4D30-AEDF-F7182A06D803</title>
    <desc>Created with sketchtool.</desc>
    <g id="Final" stroke="none" stroke-width="1" fill="none" fill-rule="evenodd">
        <g id="Landing" transform="translate(-915.000000, -3053.000000)">
            <g id="Group-40" transform="translate(252.000000, 2703.000000)">
                <g id="Group-38" transform="translate(220.000000, 311.000000)">
                    <g id="Group-35" transform="translate(350.000000, 0.000000)">
                        <g id="2" transform="translate(93.000000, 40.000000)">
                            <rect id="Rectangle-Copy-2" fill-opacity="0.01" fill="#FFFFFF" x="0" y="0" width="90" height="90"></rect>
                            <g id="Group-26" transform="translate(15.000000, 0.000000)">
                                <path d="M26.6666667,84.4444444 C26.6666667,81.9906278 28.6569476,80 31.1118855,80 C33.5652746,80 35.5555556,81.9906278 35.5555556,84.4444444" id="Stroke-15" stroke="#5C6BDD" stroke-width="1.5"></path>
                                <path d="M57.7777778,85.6279039 C57.7777778,88.0431224 55.8310093,90 53.4249576,90 L5.4639313,90 C3.05936113,90 1.11111111,88.0431224 1.11111111,85.6279039 L1.11111111,4.3720961 C1.11111111,1.96729443 3.05936113,0 5.4639313,0 L53.4249576,0 C55.8310093,0 57.7777778,1.96729443 57.7777778,4.3720961 L57.7777778,85.6279039 Z" id="Stroke-7" stroke="#5C6BDD" stroke-width="1.5"></path>
                                <g id="Group-20-Copy" transform="translate(0.000000, 3.333333)">
                                    <g id="retail" transform="translate(10.465116, 26.854701)"></g>
                                    <line x1="0.697674419" y1="8.16239316" x2="57.9069767" y2="8.16239316" id="Stroke-11" stroke="#5C6BDD" stroke-width="1.5"></line>
                                    <line x1="23.0232558" y1="1.23931624" x2="36.9767442" y2="1.23931624" id="Stroke-13" stroke="#5C6BDD" stroke-width="1.5"></line>
                                </g>
                                <g id="noun_Store_2502558" transform="translate(10.000000, 23.333333)" fill="#5C6BDD" fill-rule="nonzero">
                                    <path d="M37.2053872,35.497076 L34.8013468,35.497076 L34.8013468,17.4853801 C35.6599327,16.9590643 36.2323232,16.0233918 36.2323232,14.9122807 L36.2323232,12.2807018 C36.2323232,12.0467836 36.1178451,11.871345 35.9461279,11.754386 L34.8013468,9.8245614 L34.8013468,2.92397661 C34.8013468,1.28654971 33.4848485,0 31.9393939,0 L5.8956229,0 C4.29292929,0 3.03367003,1.34502924 3.03367003,2.92397661 L3.03367003,9.64912281 L1.71717172,11.871345 C1.65993266,11.9298246 1.6026936,12.0467836 1.54545455,12.1052632 C1.48821549,12.2222222 1.48821549,12.3976608 1.48821549,12.5146199 L1.48821549,14.9122807 C1.48821549,16.0233918 2.06060606,17.0175439 2.97643098,17.5438596 L2.97643098,35.497076 L0.572390572,35.497076 C0.228956229,35.497076 0,35.7309942 0,36.0818713 C0,36.4327485 0.228956229,36.6666667 0.572390572,36.6666667 L3.60606061,36.6666667 L21.979798,36.6666667 L29.8215488,36.6666667 L34.1717172,36.6666667 L37.2053872,36.6666667 C37.5488215,36.6666667 37.7777778,36.4327485 37.7777778,36.0818713 C37.7777778,35.7309942 37.5488215,35.497076 37.2053872,35.497076 Z M34.5723906,11.6959064 L31.2525253,11.6959064 L28.7912458,5.96491228 L31.1380471,5.96491228 L34.5723906,11.6959064 Z M21.8653199,14.9122807 L21.8653199,12.9239766 L25.4713805,12.9239766 L25.4713805,14.9122807 C25.4713805,15.0292398 25.4713805,15.1461988 25.5286195,15.2631579 C25.4141414,16.1988304 24.6700337,16.8421053 23.6969697,16.8421053 C22.6666667,16.8421053 21.8653199,16.0233918 21.8653199,14.9707602 L21.8653199,14.9122807 L21.8653199,14.9122807 Z M21.8080808,11.6959064 L21.3501684,5.96491228 L23.8686869,5.96491228 L25.2996633,11.6959064 L21.8080808,11.6959064 Z M25.0707071,5.96491228 L27.4747475,5.96491228 L29.9360269,11.6959064 L26.5016835,11.6959064 L25.0707071,5.96491228 Z M26.6734007,14.9122807 L26.6734007,12.9239766 L30.2794613,12.9239766 L30.2794613,14.9122807 C30.2794613,15.0292398 30.2794613,15.1461988 30.3367003,15.2631579 C30.2222222,16.1988304 29.4781145,16.8421053 28.5050505,16.8421053 C27.4747475,16.8421053 26.6734007,16.0233918 26.6734007,14.9707602 L26.6734007,14.9122807 L26.6734007,14.9122807 Z M4.12121212,2.92397661 C4.12121212,1.92982456 4.92255892,1.16959064 5.83838384,1.16959064 L31.9393939,1.16959064 C32.9124579,1.16959064 33.6565657,1.98830409 33.6565657,2.92397661 L33.6565657,7.89473684 L31.996633,5.0877193 C31.8821549,4.9122807 31.6531987,4.79532164 31.4814815,4.79532164 L6.23905724,4.79532164 C6.01010101,4.79532164 5.83838384,4.9122807 5.72390572,5.0877193 L4.12121212,7.77777778 L4.12121212,2.92397661 Z M20.7205387,12.9239766 L20.7205387,14.9122807 L20.7205387,14.9707602 C20.7205387,16.0233918 19.9191919,16.8421053 18.8888889,16.8421053 C17.8585859,16.8421053 17.0572391,16.0233918 17.0572391,14.9707602 L17.0572391,14.9122807 L17.0572391,12.9239766 L20.7205387,12.9239766 Z M17.1144781,11.6959064 L17.2289562,10.3508772 L17.5723906,5.96491228 L20.1481481,5.96491228 L20.6632997,11.6959064 L17.1144781,11.6959064 Z M11.1616162,15.2631579 C11.047138,16.1988304 10.3030303,16.8421053 9.32996633,16.8421053 C8.2996633,16.8421053 7.4983165,16.0233918 7.4983165,14.9707602 L7.4983165,14.9122807 L7.4983165,12.9239766 L11.1043771,12.9239766 L11.1043771,14.9122807 C11.1043771,15.0292398 11.1043771,15.1461988 11.1616162,15.2631579 Z M7.78451178,11.6959064 L10.2457912,5.96491228 L12.7070707,5.96491228 L11.2188552,11.6959064 L7.78451178,11.6959064 Z M12.2491582,14.9122807 L12.2491582,12.9239766 L15.9124579,12.9239766 L15.9124579,14.9122807 L15.9124579,14.9707602 C15.9124579,16.0233918 15.1111111,16.8421053 14.0808081,16.8421053 C13.0505051,16.8421053 12.2491582,16.0233918 12.2491582,14.9707602 L12.2491582,14.9122807 Z M12.4781145,11.6959064 L12.9360269,9.88304094 L13.96633,5.96491228 L16.4276094,5.96491228 L15.969697,11.6959064 L12.4781145,11.6959064 Z M6.58249158,5.96491228 L8.98653199,5.96491228 L6.52525253,11.6959064 L3.20538721,11.6959064 L6.58249158,5.96491228 Z M3.66329966,16.6081871 C3.09090909,16.3157895 2.69023569,15.6725146 2.69023569,14.9707602 L2.69023569,12.9239766 L6.2962963,12.9239766 L6.2962963,14.9122807 C6.2962963,15.0292398 6.2962963,15.1461988 6.35353535,15.2631579 C6.23905724,16.1988304 5.49494949,16.8421053 4.52188552,16.8421053 C4.35016835,16.8421053 4.17845118,16.7836257 4.00673401,16.7836257 C3.94949495,16.6666667 3.77777778,16.6081871 3.66329966,16.6081871 Z M29.3063973,35.497076 L22.5521886,35.497076 L22.5521886,23.9181287 L29.3063973,23.9181287 L29.3063973,35.497076 Z M33.6565657,35.497076 L30.4511785,35.497076 L30.4511785,23.3333333 C30.4511785,22.9824561 30.2222222,22.748538 29.8787879,22.748538 L21.979798,22.748538 C21.6363636,22.748538 21.4074074,22.9824561 21.4074074,23.3333333 L21.4074074,35.497076 L4.17845118,35.497076 L4.17845118,17.8947368 C4.29292929,17.8947368 4.40740741,17.9532164 4.52188552,17.9532164 C5.49494949,17.9532164 6.35353535,17.4853801 6.86868687,16.7251462 C7.38383838,17.4853801 8.24242424,17.9532164 9.27272727,17.9532164 C10.2457912,17.9532164 11.1616162,17.4853801 11.6767677,16.7251462 C12.1919192,17.4853801 13.1077441,17.9532164 14.0808081,17.9532164 C15.0538721,17.9532164 15.969697,17.4853801 16.4848485,16.7251462 C17,17.4853801 17.9158249,17.9532164 18.8888889,17.9532164 C19.8619529,17.9532164 20.7777778,17.4853801 21.2929293,16.7251462 C21.8080808,17.4853801 22.7239057,17.9532164 23.6969697,17.9532164 C24.6700337,17.9532164 25.5286195,17.4853801 26.043771,16.7251462 C26.5589226,17.4853801 27.4175084,17.9532164 28.4478114,17.9532164 C29.4208754,17.9532164 30.3367003,17.4853801 30.8518519,16.7251462 C31.3670034,17.4853801 32.2828283,17.9532164 33.2558923,17.9532164 C33.3703704,17.9532164 33.5420875,17.9532164 33.6565657,17.8947368 L33.6565657,35.497076 L33.6565657,35.497076 Z M34.1144781,16.6081871 C34.0572391,16.6081871 33.9427609,16.6666667 33.8855219,16.7251462 C33.7138047,16.7836257 33.4848485,16.8421053 33.2558923,16.8421053 C32.2255892,16.8421053 31.4242424,16.0233918 31.4242424,14.9707602 L31.4242424,14.9122807 L31.4242424,12.9239766 L35.0875421,12.9239766 L35.0875421,14.9707602 C35.0875421,15.7309942 34.6868687,16.3157895 34.1144781,16.6081871 Z" id="Shape"></path>
                                    <path d="M18.3512545,29.8591549 L17.1684588,29.8591549 L17.1684588,22.8482003 C17.1684588,22.4726135 16.953405,22.2222222 16.6308244,22.2222222 L7.75985663,22.2222222 C7.43727599,22.2222222 7.22222222,22.4726135 7.22222222,22.8482003 L7.22222222,29.8591549 L6.09318996,29.8591549 C5.77060932,29.8591549 5.55555556,30.1095462 5.55555556,30.485133 C5.55555556,30.8607199 5.77060932,31.1111111 6.09318996,31.1111111 L7.75985663,31.1111111 L16.6308244,31.1111111 L18.3512545,31.1111111 C18.6200717,31.1111111 18.8888889,30.8607199 18.8888889,30.485133 C18.8888889,30.1095462 18.6738351,29.8591549 18.3512545,29.8591549 Z M16.09319,26.0406886 L12.7598566,26.0406886 L12.7598566,23.4741784 L16.09319,23.4741784 L16.09319,26.0406886 Z M11.6845878,23.4741784 L11.6845878,26.0406886 L8.29749104,26.0406886 L8.29749104,23.4741784 L11.6845878,23.4741784 Z M8.29749104,27.2926448 L11.6845878,27.2926448 L11.6845878,29.8591549 L8.29749104,29.8591549 L8.29749104,27.2926448 Z M12.7598566,29.8591549 L12.7598566,27.2926448 L16.09319,27.2926448 L16.09319,29.8591549 L12.7598566,29.8591549 Z" id="Shape"></path>
                                    <path d="M15.0916936,3.33333333 L20.4638619,3.33333333 C20.8522114,3.33333333 21.1111111,3.11111111 21.1111111,2.77777778 C21.1111111,2.44444444 20.8522114,2.22222222 20.4638619,2.22222222 L15.0916936,2.22222222 C14.7033441,2.22222222 14.4444444,2.44444444 14.4444444,2.77777778 C14.4444444,3.11111111 14.7033441,3.33333333 15.0916936,3.33333333 Z" id="Path"></path>
                                </g>
                                <line x1="57.7777778" y1="76.1111111" x2="1.11111111" y2="76.1111111" id="Stroke-9" stroke="#5C6BDD" stroke-width="1.5"></line>
                            </g>
                        </g>
                    </g>
                </g>
            </g>
        </g>
    </g>
</svg>