<?xml version="1.0" encoding="UTF-8"?>
<svg width="90px" height="90px" viewBox="0 0 90 90" version="1.1" xmlns="http://www.w3.org/2000/svg" xmlns:xlink="http://www.w3.org/1999/xlink">
    <!-- Generator: sketchtool 62 (101010) - https://sketch.com -->
    <title>9A5ABC9F-D3BD-41A3-A837-A7231FC3D0D2</title>
    <desc>Created with sketchtool.</desc>
    <g id="Final" stroke="none" stroke-width="1" fill="none" fill-rule="evenodd">
        <g id="Landing" transform="translate(-1265.000000, -3054.000000)">
            <g id="Group-40" transform="translate(252.000000, 2703.000000)">
                <g id="Group-38" transform="translate(220.000000, 311.000000)">
                    <g id="Group-36" transform="translate(700.000000, 0.000000)">
                        <g id="3" transform="translate(93.000000, 40.000000)">
                            <rect id="Rectangle-Copy-2" fill-opacity="0.01" fill="#FFFFFF" x="0" y="0" width="90" height="90"></rect>
                            <g id="noun_delivery_2163504" transform="translate(0.000000, 6.000000)" fill="#5C6BDD" fill-rule="nonzero">
                                <path d="M79.6775842,27.3915269 C78.8635818,26.4278763 77.6844953,25.8751383 76.4432092,25.8751383 L58.6920072,25.8751383 L58.6920072,15.7101678 C58.6920072,15.3179804 58.3823618,15 57.9996996,15 C57.6170373,15 57.3073919,15.3179804 57.3073919,15.7101678 L57.3073919,52.5459624 L1.38461538,52.5459624 L1.38461538,33.6703398 C1.38461538,33.2781524 1.07496997,32.960172 0.692307692,32.960172 C0.309645415,32.960172 0,33.2781524 0,33.6703398 L0,64.0168372 C0,66.6002114 2.0492037,68.7019336 4.56760814,68.7019336 L12.5262732,68.7019336 C12.8829063,73.8887941 17.0998816,78 22.2457932,78 C27.3917048,78 31.6092716,73.8887941 31.9659893,68.7019336 L54.1169621,68.7019336 L63.9328237,68.7019336 C64.2894568,73.8887941 68.5064321,78 73.6523436,78 C78.7982552,78 83.0152305,73.8887941 83.3718636,68.7019336 L86.8967847,68.7019336 C88.6079476,68.7019336 90,67.2739692 90,65.5190086 L90,41.3299575 C90,40.2494482 89.6200419,39.2032684 88.9304385,38.3852577 L79.6775842,27.3915269 Z M22.2457933,76.5796644 C17.6308594,76.5796644 13.8759014,72.7281829 13.8759014,67.9938463 C13.8759014,63.2595097 17.6308593,59.4076816 22.2457933,59.4076816 C26.8614033,59.4076816 30.6163612,63.2595098 30.6163612,67.9938463 C30.6163612,72.7281829 26.8614033,76.5796644 22.2457933,76.5796644 Z M57.3073919,64.0168372 C57.3073919,65.8168769 55.8761268,67.281598 54.1169622,67.281598 L31.9658203,67.281598 C31.607159,62.0964713 27.3902682,57.987346 22.2457933,57.987346 C17.1013184,57.987346 12.8849347,62.0964713 12.5264423,67.281598 L4.56760814,67.281598 C2.8125,67.281598 1.38461538,65.8168768 1.38461538,64.0168372 L1.38461538,53.966298 L57.3073919,53.966298 L57.3073919,64.0168372 Z M73.6523438,76.5796644 C69.0404523,76.5796644 65.2878606,72.7330376 65.282959,68.0032089 C65.282959,67.9990477 65.2851563,67.9957536 65.2851563,67.9917657 C65.2851563,67.9879514 65.283128,67.9848305 65.283128,67.9811895 C65.2898888,63.2527479 69.0416354,59.4076815 73.6523438,59.4076815 C78.265841,59.4076815 82.0197003,63.2570824 82.0220666,67.9893384 C82.0220666,67.9902053 82.0215595,67.9908988 82.0215595,67.9917657 C82.0215595,67.992806 82.0222356,67.9938463 82.0222356,67.9948866 C82.0215595,72.7288764 78.2669396,76.5796644 73.6523438,76.5796644 Z M88.6153846,65.5190085 C88.6153846,66.4909814 87.8446515,67.2815979 86.8967848,67.2815979 L83.3716947,67.2815979 C83.0132023,62.0964713 78.7968186,57.9873459 73.6523437,57.9873459 C68.5078688,57.9873459 64.2914851,62.0964713 63.9329928,67.2815979 L57.391733,67.2815979 C58.1947491,66.43706 58.6920072,65.2859847 58.6920072,64.0168371 L58.6920072,27.295474 L76.4432091,27.295474 C77.2829026,27.295474 78.080003,27.6696298 78.6303335,28.3205014 L81.6317138,31.886598 L67.9252553,31.886598 C66.7110126,31.886598 65.7232571,32.8998355 65.7232571,34.1454033 L65.7232571,45.7418058 C65.7232571,46.9873735 66.7110125,48.0006111 67.9252553,48.0006111 L88.6153846,48.0006111 L88.6153846,65.5190085 Z M88.6153846,46.5802753 L67.9252554,46.5802753 C67.4743089,46.5802753 67.1078726,46.2040389 67.1078726,45.7418057 L67.1078726,34.1454032 C67.1078726,33.68317 67.4743089,33.3069336 67.9252554,33.3069336 L82.8271108,33.3069336 L87.882512,39.3135385 C88.3550931,39.8742521 88.6153846,40.5903149 88.6153846,41.3299575 L88.6153846,46.5802753 Z" id="Shape"></path>
                                <path d="M73.8586957,64 C71.4314157,64 69.4565217,66.0188625 69.4565217,68.5001829 C69.4565217,70.9815034 71.4314157,73 73.8586957,73 C76.2859756,73 78.2608696,70.9815033 78.2608696,68.5001829 C78.2608696,66.0188626 76.2859756,64 73.8586957,64 Z M73.8586957,71.5014025 C72.2395546,71.5014025 70.9224814,70.1550063 70.9224814,68.5001829 C70.9224814,66.8449937 72.2395546,65.4985975 73.8586957,65.4985975 C75.4778367,65.4985975 76.7949099,66.8449937 76.7949099,68.5001829 C76.7949099,70.1550063 75.4778366,71.5014025 73.8586957,71.5014025 Z" id="Shape"></path>
                                <path d="M22.0105116,64 C19.5830343,64 17.6086957,66.0188625 17.6086957,68.5001829 C17.6086957,70.9815034 19.5830343,73 22.0105116,73 C24.4379889,73 26.4130435,70.9815033 26.4130435,68.5001829 C26.4130435,66.0188626 24.4379889,64 22.0105116,64 Z M22.0105116,71.5014025 C20.3919548,71.5014025 19.0747745,70.1550063 19.0747745,68.5001829 C19.0747745,66.8449937 20.3919548,65.4985975 22.0105116,65.4985975 C23.6297843,65.4985975 24.9469646,66.8449937 24.9469646,68.5001829 C24.9469646,70.1550063 23.6297843,71.5014025 22.0105116,71.5014025 Z" id="Shape"></path>
                                <path d="M53.1075989,35 L39.8271837,35 C39.4420666,35 39.1304348,35.3189121 39.1304348,35.7122487 L39.1304348,49.2877513 C39.1304348,49.6810879 39.4420666,50 39.8271837,50 L53.1075989,50 C53.492716,50 53.8043478,49.6810879 53.8043478,49.2877513 L53.8043478,35.7122487 C53.8043478,35.3189121 53.4927159,35 53.1075989,35 Z M52.41085,48.5755025 L40.5239326,48.5755025 L40.5239326,36.4244975 L52.41085,36.4244975 L52.41085,48.5755025 L52.41085,48.5755025 Z" id="Shape"></path>
                                <path d="M22.218488,50 L35.4989033,50 C35.8840204,50 36.1956522,49.6810879 36.1956522,49.2877513 L36.1956522,35.7122487 C36.1956522,35.3189121 35.8840204,35 35.4989033,35 L22.218488,35 C21.8333709,35 21.5217391,35.3189121 21.5217391,35.7122487 L21.5217391,49.2877513 C21.5217391,49.6810879 21.833371,50 22.218488,50 Z M22.9152369,36.4244975 L34.8021544,36.4244975 L34.8021544,48.5755025 L22.9152369,48.5755025 L22.9152369,36.4244975 Z" id="Shape"></path>
                                <path d="M5.58808557,35 C5.20295062,35 4.89130435,35.3189121 4.89130435,35.7122487 L4.89130435,49.2877513 C4.89130435,49.6810879 5.20295062,50 5.58808557,50 L18.8684362,50 C19.2535711,50 19.5652174,49.6810879 19.5652174,49.2877513 L19.5652174,35.7122487 C19.5652174,35.3189121 19.2535711,35 18.8684362,35 L5.58808557,35 Z M18.171655,48.5755025 L6.28486678,48.5755025 L6.28486678,36.4244975 L18.171655,36.4244975 L18.171655,48.5755025 Z" id="Shape"></path>
                                <path d="M53.8043478,18.7122487 C53.8043478,18.3189121 53.492716,18 53.1075989,18 L39.8271837,18 C39.4420666,18 39.1304348,18.3189121 39.1304348,18.7122487 L39.1304348,32.2877513 C39.1304348,32.6810879 39.4420666,33 39.8271837,33 L53.1075989,33 C53.492716,33 53.8043478,32.6810879 53.8043478,32.2877513 L53.8043478,18.7122487 Z M52.41085,31.5755025 L40.5239326,31.5755025 L40.5239326,19.4244975 L52.41085,19.4244975 L52.41085,31.5755025 L52.41085,31.5755025 Z" id="Shape"></path>
                                <path d="M34.2391304,14.5027048 C34.2391304,6.50601582 27.6566515,0 19.5655595,0 C11.4744675,0 4.89130435,6.50601582 4.89130435,14.5027048 C4.89130435,22.496689 11.4744675,29 19.5655595,29 C27.6566515,29 34.2391304,22.496689 34.2391304,14.5027048 Z M19.5655595,27.6151515 C12.2469047,27.6151515 6.29250141,21.7329261 6.29250141,14.5027049 C6.29250141,7.26944066 12.2469047,1.38484863 19.5655595,1.38484863 C26.8842143,1.38484863 32.8379334,7.26944073 32.8379334,14.5027049 C32.8379334,21.7329261 26.8842143,27.6151515 19.5655595,27.6151515 Z" id="Shape"></path>
                                <path d="M27.2298608,9.19751336 L16.16273,20.3724899 L11.9005741,16.0690031 C11.6397721,15.8056519 11.217273,15.8056519 10.956471,16.0690031 C10.6956691,16.3323542 10.6956691,16.758983 10.956471,17.0223342 L15.6906784,21.8024866 C15.8210794,21.9341622 15.9919047,22 16.1627299,22 C16.3335552,22 16.5043805,21.9341622 16.6347814,21.8024866 L28.1739638,10.1508445 C28.4347657,9.88749335 28.4347657,9.4608645 28.1739638,9.19751336 C27.9131618,8.93416221 27.4906628,8.93416221 27.2298608,9.19751336 Z" id="Path"></path>
                            </g>
                        </g>
                    </g>
                </g>
            </g>
        </g>
    </g>
</svg>