<?xml version="1.0" encoding="UTF-8"?>
<svg width="120px" height="120px" viewBox="0 0 120 120" version="1.1" xmlns="http://www.w3.org/2000/svg" xmlns:xlink="http://www.w3.org/1999/xlink">
    <!-- Generator: sketchtool 62 (101010) - https://sketch.com -->
    <title>24D8BC91-BD91-48F6-A217-9D276162ABBD</title>
    <desc>Created with sketchtool.</desc>
    <g id="Final" stroke="none" stroke-width="1" fill="none" fill-rule="evenodd">
        <g id="Landing" transform="translate(-903.000000, -2279.000000)">
            <g id="Group-25" transform="translate(372.000000, 2105.000000)">
                <g id="Group-22" transform="translate(0.000000, 174.000000)">
                    <g id="Group-19">
                        <g id="Group-7" transform="translate(400.000000, 0.000000)">
                            <g id="Group-39" transform="translate(58.000000, 0.000000)">
                                <g id="Bank" transform="translate(73.000000, 0.000000)">
                                    <circle id="Oval" fill-opacity="0.1" fill="#5C6BDD" cx="60" cy="60" r="60"></circle>
                                    <g id="Group-17" transform="translate(30.000000, 30.000000)" stroke="#5C6BDD" stroke-linecap="round" stroke-linejoin="round" stroke-width="2">
                                        <path d="M59.7413793,20.7910345 L0.25862069,20.7910345 L0.25862069,17.6151724 C0.25862069,16.4384483 1.05258621,15.4117241 2.19310345,15.1143103 L29.1387931,0.406551724 C29.6948276,0.21 30.3051724,0.21 30.8612069,0.406551724 L57.8068966,15.1143103 C58.9474138,15.4117241 59.7413793,16.4384483 59.7413793,17.6151724 L59.7413793,20.7910345 Z" id="Stroke-1"></path>
                                        <line x1="13.1896552" y1="20.7910345" x2="13.1896552" y2="50.5324138" id="Stroke-3"></line>
                                        <line x1="5.43103448" y1="20.7910345" x2="5.43103448" y2="50.5324138" id="Stroke-5"></line>
                                        <line x1="54.5689655" y1="20.7910345" x2="54.5689655" y2="50.5324138" id="Stroke-7"></line>
                                        <line x1="46.8103448" y1="20.7910345" x2="46.8103448" y2="50.5324138" id="Stroke-9"></line>
                                        <line x1="33.8793103" y1="20.7910345" x2="33.8793103" y2="50.5324138" id="Stroke-11"></line>
                                        <line x1="26.1206897" y1="20.7910345" x2="26.1206897" y2="50.5324138" id="Stroke-13"></line>
                                        <path d="M57.1551724,59.5841379 L2.84482759,59.5841379 C1.41724138,59.5841379 0.25862069,58.4255172 0.25862069,56.997931 L0.25862069,51.8255172 L59.7413793,51.8255172 L59.7413793,56.997931 C59.7413793,58.4255172 58.5827586,59.5841379 57.1551724,59.5841379 Z" id="Stroke-15"></path>
                                    </g>
                                </g>
                            </g>
                        </g>
                    </g>
                </g>
            </g>
        </g>
    </g>
</svg>