<?xml version="1.0" encoding="UTF-8"?>
<svg width="120px" height="120px" viewBox="0 0 120 120" version="1.1" xmlns="http://www.w3.org/2000/svg" xmlns:xlink="http://www.w3.org/1999/xlink">
    <!-- Generator: sketchtool 62 (101010) - https://sketch.com -->
    <title>E87BC6EF-EDCE-4B4F-B677-E3443232D6FE</title>
    <desc>Created with sketchtool.</desc>
    <g id="Final" stroke="none" stroke-width="1" fill="none" fill-rule="evenodd">
        <g id="Landing" transform="translate(-503.000000, -2279.000000)">
            <g id="Group-25" transform="translate(372.000000, 2105.000000)">
                <g id="Group-22" transform="translate(0.000000, 174.000000)">
                    <g id="Group-19">
                        <g id="Group-12">
                            <g id="Group-39" transform="translate(58.000000, 0.000000)">
                                <g id="GST" transform="translate(73.000000, 0.000000)">
                                    <circle id="Oval" fill-opacity="0.1" fill="#5C6BDD" cx="60" cy="60" r="60"></circle>
                                    <g id="Group-13" transform="translate(33.000000, 30.000000)" stroke="#5C6BDD" stroke-linejoin="round" stroke-width="2">
                                        <path d="M13.1896552,15.7758621 L0.25862069,15.7758621 L15.7758621,0.25862069 L15.7758621,13.1896552 C15.7758621,14.6172414 14.6198276,15.7758621 13.1896552,15.7758621 Z" id="Stroke-1" stroke-linecap="round"></path>
                                        <path d="M49.3965517,36.6284483 L49.3965517,57.1551724 C49.3965517,58.5827586 48.2405172,59.7413793 46.8103448,59.7413793 L2.84482759,59.7413793 C1.41465517,59.7413793 0.25862069,58.5827586 0.25862069,57.1551724 L0.25862069,21.1112069" id="Stroke-3" stroke-linecap="round"></path>
                                        <path d="M20.9482759,0.25862069 L46.8103448,0.25862069 C48.2405172,0.25862069 49.3965517,1.41724138 49.3965517,2.84482759 L49.3965517,15.7758621" id="Stroke-5" stroke-linecap="round"></path>
                                        <polygon id="Stroke-7" stroke-linecap="round" points="32.6544828 47.442931 22.5941379 52.0153448 27.1691379 41.9575862 49.1131034 20.0136207 54.5984483 25.4989655"></polygon>
                                        <line x1="50.3006897" y1="29.7928448" x2="44.792069" y2="24.3100862" id="Stroke-9"></line>
                                        <line x1="32.6366379" y1="47.4568966" x2="27.1564655" y2="41.9482759" id="Stroke-11"></line>
                                    </g>
                                </g>
                            </g>
                        </g>
                    </g>
                </g>
            </g>
        </g>
    </g>
</svg>