<?xml version="1.0" standalone="no"?>
<!DOCTYPE svg PUBLIC "-//W3C//DTD SVG 20010904//EN"
 "http://www.w3.org/TR/2001/REC-SVG-20010904/DTD/svg10.dtd">
<svg version="1.0" xmlns="http://www.w3.org/2000/svg"
 width="381.000000pt" height="361.000000pt" viewBox="0 0 381.000000 361.000000"
 preserveAspectRatio="xMidYMid meet">

<g transform="translate(0.000000,361.000000) scale(0.100000,-0.100000)"
fill="#000000" stroke="none">
<path d="M1200 2596 c0 -8 12 -17 27 -21 15 -3 197 -5 403 -4 l375 3 0 -180 0
-179 -400 -3 c-341 -2 -401 -4 -408 -17 -6 -12 -34 -15 -148 -15 -135 0 -141
-1 -164 -25 -23 -22 -25 -32 -25 -118 0 -79 3 -98 20 -120 11 -14 20 -28 20
-31 0 -3 -22 -6 -50 -6 -46 0 -50 -2 -50 -24 0 -18 7 -25 32 -30 18 -3 278 -6
578 -6 300 0 553 0 563 0 16 0 17 -9 15 -87 l-3 -88 -592 -3 -593 -2 0 -30 0
-30 543 0 c299 0 612 3 696 7 193 8 194 9 199 122 5 91 -1 122 -24 145 -14 15
-14 17 0 22 33 13 85 -6 101 -36 23 -45 20 -176 -5 -217 l-20 -33 328 0 c316
0 329 1 350 20 29 27 35 56 30 146 -3 64 -7 79 -26 94 -36 29 -27 40 33 40 52
0 55 1 55 25 l0 25 -592 2 -593 3 0 90 0 90 593 3 593 2 -3 23 c-3 21 -8 22
-148 28 -80 4 -306 7 -504 8 -337 1 -358 2 -350 19 5 9 9 91 10 182 2 159 -3
195 -30 212 -6 4 -197 8 -423 8 -346 0 -413 -2 -413 -14z"/>
<path d="M1807 2484 c-4 -4 -7 -44 -7 -89 0 -67 3 -85 18 -99 33 -29 50 4 53
104 l4 85 -31 3 c-16 2 -33 0 -37 -4z"/>
<path d="M1734 1395 c0 -66 1 -92 3 -57 2 34 2 88 0 120 -2 31 -3 3 -3 -63z"/>
<path d="M1163 1413 c26 -2 67 -2 90 0 23 2 2 3 -48 3 -49 0 -68 -1 -42 -3z"/>
<path d="M742 1177 c-21 -22 -22 -31 -22 -244 l0 -222 26 -20 c26 -21 35 -21
580 -21 311 0 554 4 554 9 0 5 -7 14 -15 21 -22 19 -22 451 0 470 8 7 15 16
15 21 0 5 -245 9 -558 9 l-559 0 -21 -23z"/>
<path d="M1924 935 c0 -116 2 -161 3 -102 2 59 2 154 0 210 -1 56 -3 8 -3
-108z"/>
</g>
</svg>
