<?xml version="1.0" encoding="UTF-8"?>
<svg width="80px" height="80px" viewBox="0 0 80 80" version="1.1" xmlns="http://www.w3.org/2000/svg" xmlns:xlink="http://www.w3.org/1999/xlink">
    <!-- Generator: sketchtool 62 (101010) - https://sketch.com -->
    <title>6FB2DC7D-C00D-41FB-8048-F322B67AC67F</title>
    <desc>Created with sketchtool.</desc>
    <g id="Final" stroke="none" stroke-width="1" fill="none" fill-rule="evenodd">
        <g id="Landing" transform="translate(-992.000000, -1363.000000)">
            <g id="Group-6" transform="translate(372.000000, 1333.000000)">
                <g id="Website" transform="translate(600.000000, 0.000000)">
                    <g id="Group-24" transform="translate(20.000000, 30.000000)">
                        <g id="Group-23">
                            <g id="Logo_Website">
                                <circle id="Oval" fill-opacity="0.1" fill="#5C6BDD" cx="40" cy="40" r="40"></circle>
                                <g id="Group-11" transform="translate(20.000000, 20.000000)" stroke="#5C6BDD" stroke-linecap="round" stroke-linejoin="round" stroke-width="2">
                                    <path d="M39.1666667,20 C39.1666667,30.585 30.585,39.1666667 20,39.1666667 C9.415,39.1666667 0.833333333,30.585 0.833333333,20 C0.833333333,9.415 9.415,0.833333333 20,0.833333333 C30.585,0.833333333 39.1666667,9.415 39.1666667,20 Z" id="Stroke-1"></path>
                                    <path d="M4.117,30.6998333 C7.55033333,28.6165 32.4503333,28.6165 35.8836667,30.6998333" id="Stroke-3"></path>
                                    <path d="M3.36666667,10.4996667 C6.66666667,12.733 33.3333333,12.733 36.6333333,10.4996667" id="Stroke-5"></path>
                                    <path d="M29.1666667,20 C29.1666667,30.585 22.5,39.1666667 20,39.1666667 C17.5,39.1666667 10.8333333,30.585 10.8333333,20 C10.8333333,9.415 17.5,0.833333333 20,0.833333333 C22.5,0.833333333 29.1666667,9.415 29.1666667,20 Z" id="Stroke-7"></path>
                                    <line x1="0.833333333" y1="20.8333333" x2="39.1666667" y2="20.8333333" id="Stroke-9"></line>
                                </g>
                            </g>
                        </g>
                    </g>
                </g>
            </g>
        </g>
    </g>
</svg>