<?xml version="1.0" encoding="UTF-8"?>
<svg width="80px" height="80px" viewBox="0 0 80 80" version="1.1" xmlns="http://www.w3.org/2000/svg" xmlns:xlink="http://www.w3.org/1999/xlink">
    <!-- Generator: sketchtool 62 (101010) - https://sketch.com -->
    <title>900AF007-BFD9-49C1-906F-7E3A4C99E73A</title>
    <desc>Created with sketchtool.</desc>
    <g id="Final" stroke="none" stroke-width="1" fill="none" fill-rule="evenodd">
        <g id="Landing" transform="translate(-392.000000, -1701.000000)">
            <g id="Group-6" transform="translate(372.000000, 1333.000000)">
                <g id="Staff_Manager" transform="translate(0.000000, 338.000000)">
                    <g id="Group-24" transform="translate(20.000000, 30.000000)">
                        <g id="Group-23">
                            <g id="Logo_StaffManager">
                                <circle id="Oval" fill-opacity="0.1" fill="#5C6BDD" cx="40" cy="40" r="40"></circle>
                                <g id="Group-9" transform="translate(21.000000, 24.000000)" stroke="#5C6BDD" stroke-linecap="round" stroke-linejoin="round" stroke-width="2">
                                    <path d="M29.8467319,8.14833333 C29.8467319,11.0133333 27.6083985,13.3333333 24.8467319,13.3333333 C22.0850652,13.3333333 19.8467319,11.0133333 19.8467319,8.14833333 L19.8467319,5.18666667 C19.8467319,2.32166667 22.0850652,-1.5187851e-13 24.8467319,-1.5187851e-13 C27.6083985,-1.5187851e-13 29.8467319,2.32166667 29.8467319,5.18666667 L29.8467319,8.14833333 Z" id="Stroke-1"></path>
                                    <path d="M15.6800652,5.0005 C15.6800652,7.30216667 13.8150652,9.16716667 11.5133985,9.16716667 C9.21173185,9.16716667 7.34673185,7.30216667 7.34673185,5.0005 C7.34673185,2.69883333 9.21173185,0.833833333 11.5133985,0.833833333 C13.8150652,0.833833333 15.6800652,2.69883333 15.6800652,5.0005 Z" id="Stroke-3"></path>
                                    <path d="M15.7093985,18.5681667 C14.0610652,17.3698333 12.0410652,16.6665 9.84606519,16.6665 C4.98106519,16.6665 0.929398518,20.1498333 0.0293985184,24.7498333 C-0.168934815,25.7515 0.664398518,26.6665 1.68106519,26.6665 L9.84606519,26.6665" id="Stroke-5"></path>
                                    <path d="M24.8467319,18.3338333 L24.8467319,18.3338333 C18.1267319,18.3338333 12.5667319,23.3055 11.6467319,29.7721667 C11.5050652,30.7721667 12.3017319,31.6671667 13.3117319,31.6671667 L36.3817319,31.6671667 C37.3917319,31.6671667 38.1883985,30.7721667 38.0467319,29.7721667 C37.1267319,23.3055 31.5667319,18.3338333 24.8467319,18.3338333 Z" id="Stroke-7"></path>
                                </g>
                            </g>
                        </g>
                    </g>
                </g>
            </g>
        </g>
    </g>
</svg>