<?xml version="1.0" encoding="UTF-8"?>
<svg width="40px" height="40px" viewBox="0 0 40 40" version="1.1" xmlns="http://www.w3.org/2000/svg" xmlns:xlink="http://www.w3.org/1999/xlink">
    <!-- Generator: sketchtool 63.1 (101010) - https://sketch.com -->
    <title>F8D37782-4519-4AE6-A85B-331C75CB6FCC</title>
    <desc>Created with sketchtool.</desc>
    <g id="Final" stroke="none" stroke-width="1" fill="none" fill-rule="evenodd">
        <g id="Landing" transform="translate(-1508.000000, -6090.000000)" fill="#9B9B9B" fill-rule="nonzero">
            <g id="Group-15" transform="translate(0.000000, 5930.000000)">
                <g id="footer" transform="translate(0.000000, 140.000000)">
                    <g id="Group-41" transform="translate(1328.000000, 20.000000)">
                        <g id="brand" transform="translate(180.000000, 0.000000)">
                            <polygon id="Path" points="17.5088501 23.7469483 24.0145874 20 17.5088501 16.2530517"></polygon>
                            <path d="M20,0 C8.95599367,0 0,8.95599367 0,20 C0,31.0440063 8.95599367,40 20,40 C31.0440063,40 40,31.0440063 40,20 C40,8.95599367 31.0440063,0 20,0 Z M32.4970557,20.0204468 C32.4970557,20.0204468 32.4970557,24.0765381 31.9824219,26.0324097 C31.6940308,27.1029663 30.8499145,27.9470825 29.7793579,28.2351684 C27.8234863,28.75 20,28.75 20,28.75 C20,28.75 12.1969605,28.75 10.2206421,28.2147217 C9.15008547,27.9266358 8.30596922,27.0822144 8.01757812,26.0116577 C7.50274656,24.0765381 7.50274656,20 7.50274656,20 C7.50274656,20 7.50274656,15.9442139 8.01757812,13.9883423 C8.30566406,12.9177856 9.17053219,12.0529175 10.2206421,11.7648316 C12.1765137,11.25 20,11.25 20,11.25 C20,11.25 27.8234863,11.25 29.7793579,11.7852783 C30.8499145,12.0733642 31.6940308,12.9177856 31.9824219,13.9883423 C32.5177002,15.9442139 32.4970557,20.0204468 32.4970557,20.0204468 L32.4970557,20.0204468 Z" id="Shape"></path>
                        </g>
                    </g>
                </g>
            </g>
        </g>
    </g>
</svg>