<?xml version="1.0" encoding="UTF-8"?>
<svg width="24px" height="24px" viewBox="0 0 24 24" version="1.1" xmlns="http://www.w3.org/2000/svg" xmlns:xlink="http://www.w3.org/1999/xlink">
    <!-- Generator: sketchtool 63.1 (101010) - https://sketch.com -->
    <title>BC508707-690F-4D16-8406-6F7C7B72133E</title>
    <desc>Created with sketchtool.</desc>
    <g id="Final" stroke="none" stroke-width="1" fill="none" fill-rule="evenodd">
        <g id="Products" transform="translate(-1290.000000, -2155.000000)">
            <g id="Group" transform="translate(372.000000, 1814.000000)">
                <g id="Group-3" transform="translate(720.000000, 56.000000)">
                    <g id="Group-37" transform="translate(0.000000, 273.000000)">
                        <g id="Group-7" transform="translate(198.000000, 12.000000)">
                            <g id="Group-32">
                                <circle id="Oval" stroke="#5C6BDD" fill="#FFFFFF" cx="12" cy="12" r="11.5"></circle>
                                <g id="android" transform="translate(5.000000, 5.000000)" fill="#5C6BDD" fill-rule="nonzero">
                                    <path d="M10.7017778,5 L3.29818689,5 C3.13349701,5 3,5.12289786 3,5.274512 L3,10.9900919 C3,11.141706 3.13349701,11.2646039 3.29818689,11.2646039 L4.61807279,11.2646039 L4.61807279,13.1907734 C4.61807279,13.6376806 5.0116046,14 5.49709002,14 L5.49709002,14 C5.98254012,14 6.37610725,13.6377131 6.37610725,13.1907734 L6.37610725,11.2646039 L7.60555855,11.2646039 L7.60555855,13.1907734 C7.60555855,13.6376806 7.99909036,14 8.48457578,14 L8.48457578,14 C8.97002588,14 9.36359301,13.6377131 9.36359301,13.1907734 L9.36359301,11.2646039 L10.7018131,11.2646039 C10.866503,11.2646039 11,11.141706 11,10.9900919 L11,5.274512 C11,5.12289786 10.8664677,5 10.7017778,5 Z" id="Path"></path>
                                    <path d="M1,5 L1,5 C0.447735402,5 0,5.36928748 0,5.82486359 L0,9.17513641 C0,9.63067937 0.447695214,10 1,10 L1,10 C1.5522646,10 2,9.63071252 2,9.17513641 L2,5.82486359 C1.99995981,5.36932063 1.5522646,5 1,5 Z" id="Path"></path>
                                    <path d="M13,5 L13,5 C12.4477354,5 12,5.36928748 12,5.82486359 L12,9.17513641 C12,9.63067937 12.4476952,10 13,10 L13,10 C13.5522646,10 14,9.63071252 14,9.17513641 L14,5.82486359 C14,5.36932063 13.5523048,5 13,5 Z" id="Path"></path>
                                    <path d="M3.30368701,4 L10.6963238,4 C10.8891795,4 11.0330127,3.8406374 10.9934065,3.67131263 C10.7488685,2.62583209 10.0068446,1.74477584 8.9999765,1.23580208 L9.63195112,0.212921821 C9.67472011,0.143670181 9.64683042,0.0563963489 9.56963061,0.0180306823 C9.49225109,-0.0204317045 9.3951044,0.00468329908 9.35233542,0.0739349394 L8.71558073,1.10452057 C8.19405071,0.887416033 7.61282382,0.766161182 7,0.766161182 C6.38715101,0.766161182 5.80592412,0.887416033 5.28439411,1.10452057 L4.64763942,0.0739026993 C4.6048345,0.00461881897 4.50754404,-0.0203672244 4.43038017,0.0179984422 C4.35318036,0.0563641089 4.32529067,0.14363794 4.36805965,0.212889581 L5.00003428,1.23576984 C3.99316615,1.74477584 3.25114226,2.62579985 3.00660431,3.67131263 C2.96696213,3.8406374 3.1107953,4 3.30368701,4 Z M9.2058786,2.47559343 C9.2058786,2.64588541 9.05198214,2.78396957 8.86210942,2.78396957 C8.67227264,2.78396957 8.51834024,2.64591765 8.51834024,2.47559343 C8.51834024,2.30530146 8.6722367,2.1672173 8.86210942,2.1672173 C9.05198214,2.1672173 9.2058786,2.30530146 9.2058786,2.47559343 Z M5.13782947,2.1672173 C5.32766626,2.1672173 5.48159866,2.30526922 5.48159866,2.47559343 C5.48159866,2.64588541 5.3277022,2.78396957 5.13782947,2.78396957 C4.94799269,2.78396957 4.79406029,2.64591765 4.79406029,2.47559343 C4.79406029,2.30530146 4.94795675,2.1672173 5.13782947,2.1672173 Z" id="Shape"></path>
                                </g>
                            </g>
                        </g>
                    </g>
                </g>
            </g>
        </g>
    </g>
</svg>