<?xml version="1.0" encoding="UTF-8"?>
<svg width="24px" height="24px" viewBox="0 0 24 24" version="1.1" xmlns="http://www.w3.org/2000/svg" xmlns:xlink="http://www.w3.org/1999/xlink">
    <!-- Generator: sketchtool 63.1 (101010) - https://sketch.com -->
    <title>174E521A-E9C7-46A7-9785-759EC8EF44A3</title>
    <desc>Created with sketchtool.</desc>
    <g id="Final" stroke="none" stroke-width="1" fill="none" fill-rule="evenodd">
        <g id="Products" transform="translate(-1362.000000, -2155.000000)">
            <g id="Group" transform="translate(372.000000, 1814.000000)">
                <g id="Group-3" transform="translate(720.000000, 56.000000)">
                    <g id="Group-37" transform="translate(0.000000, 273.000000)">
                        <g id="Group-7" transform="translate(198.000000, 12.000000)">
                            <g id="Group-45" transform="translate(72.000000, 0.000000)">
                                <circle id="Oval-Copy-4" stroke="#5C6BDD" fill="#FFFFFF" cx="12" cy="12" r="11.5"></circle>
                                <g id="noun_web_2656995" transform="translate(6.000000, 6.000000)" fill="#5C6BDD">
                                    <g id="Group">
                                        <polygon id="Path" points="6.8358209 6.80350438 11.2686567 8.17021277 9.98507463 8.92115144 12 10.9486859 10.9552239 12 8.94029851 9.97246558 8.19402985 11.2490613"></polygon>
                                        <path d="M5.79104478,0 C8.94029851,0 11.5671642,2.58322904 11.5671642,5.81226533 C11.5671642,6.50312891 11.4477612,7.1339174 11.2537313,7.71964956 L10.6268657,7.52440551 C10.7761194,7.08886108 10.8656716,6.6232791 10.8955224,6.14267835 L9.14925373,6.14267835 C9.13432836,6.44305382 9.10447761,6.74342929 9.04477612,7.04380476 L8.41791045,6.8485607 C8.44776119,6.60826033 8.47761194,6.38297872 8.49253731,6.14267835 L6.10447761,6.14267835 L6.10447761,7.70463079 C6.31343284,7.71964956 6.50746269,7.73466834 6.68656716,7.76470588 L6.91044776,8.48560701 C6.65671642,8.42553191 6.3880597,8.38047559 6.10447761,8.36545682 L6.10447761,10.7834793 C6.50746269,10.3929912 6.89552239,9.95744681 7.2238806,9.49186483 L7.44776119,10.2728411 C7.29850746,10.4680851 7.13432836,10.6483104 6.97014925,10.8285357 C7.17910448,10.7834793 7.37313433,10.7234043 7.56716418,10.6483104 L7.76119403,11.2640801 C5.80597015,12 3.46268657,11.6996245 1.70149254,9.92740926 C-1.94029851,6.27784731 0.656716418,0 5.79104478,0 Z M6.97014925,0.795994994 C7.50746269,1.38172716 7.98507463,2.01251564 8.34328358,2.718398 C8.68656716,2.52315394 8.98507463,2.29787234 9.26865672,2.02753442 C8.62686567,1.42678348 7.8358209,1.00625782 6.97014925,0.795994994 Z M6.10447761,0.856070088 L6.10447761,3.3942428 C6.70149254,3.36420526 7.25373134,3.2290363 7.76119403,3.00375469 C7.32835821,2.2077597 6.76119403,1.48685857 6.10447761,0.856070088 Z M9.14925373,5.48185232 L10.8955224,5.48185232 C10.8358209,4.40050063 10.4179104,3.34918648 9.71641791,2.50813517 C9.3880597,2.82352941 9.02985075,3.09386733 8.64179104,3.30413016 C8.92537313,3.99499374 9.11940299,4.73091364 9.14925373,5.48185232 Z M8.04477612,3.60450563 C7.44776119,3.85982478 6.79104478,4.02503129 6.10447761,4.05506884 L6.10447761,5.48185232 L8.49253731,5.48185232 C8.46268657,4.83604506 8.29850746,4.20525657 8.04477612,3.60450563 Z M4.59701493,10.8285357 C4.05970149,10.2578223 3.62686567,9.64205257 3.26865672,9.01126408 C2.95522388,9.20650814 2.64179104,9.41677096 2.37313433,9.67209011 C3,10.2277847 3.76119403,10.6332916 4.59701493,10.8285357 Z M2.98507463,8.42553191 C2.64179104,7.67459324 2.46268657,6.90863579 2.41791045,6.14267835 L0.671641791,6.14267835 C0.746268657,7.31414268 1.19402985,8.36545682 1.91044776,9.19148936 C2.23880597,8.90613267 2.59701493,8.65081352 2.98507463,8.42553191 Z M2.41791045,5.48185232 C2.44776119,4.76095119 2.62686567,4.02503129 2.94029851,3.30413016 C2.53731343,3.09386733 2.17910448,2.82352941 1.85074627,2.50813517 C1.1641791,3.33416771 0.746268657,4.35544431 0.671641791,5.48185232 L2.41791045,5.48185232 Z M3.2238806,2.718398 C3.56716418,2.05757196 4.02985075,1.41176471 4.59701493,0.795994994 C3.73134328,1.00625782 2.94029851,1.44180225 2.29850746,2.02753442 C2.58208955,2.29787234 2.88059701,2.52315394 3.2238806,2.718398 Z M5.46268657,0.856070088 C4.79104478,1.50187735 4.2238806,2.22277847 3.80597015,3.00375469 C4.31343284,3.2290363 4.88059701,3.36420526 5.46268657,3.3942428 L5.46268657,0.856070088 Z M3.52238806,3.60450563 C3.25373134,4.22027534 3.10447761,4.85106383 3.07462687,5.48185232 L5.46268657,5.48185232 L5.46268657,4.05506884 C4.7761194,4.02503129 4.11940299,3.85982478 3.52238806,3.60450563 Z M3.07462687,6.14267835 C3.10447761,6.81852315 3.28358209,7.47934919 3.56716418,8.14017522 C4.14925373,7.89987484 4.79104478,7.74968711 5.46268657,7.70463079 L5.46268657,6.14267835 L3.07462687,6.14267835 Z M3.86567164,8.72590738 C4.26865672,9.47684606 4.82089552,10.1526909 5.46268657,10.7834793 L5.46268657,8.36545682 C4.89552239,8.41051314 4.35820896,8.53066333 3.86567164,8.72590738 Z" id="Shape" fill-rule="nonzero"></path>
                                    </g>
                                </g>
                            </g>
                        </g>
                    </g>
                </g>
            </g>
        </g>
    </g>
</svg>