<?xml version="1.0" encoding="UTF-8"?>
<svg width="24px" height="24px" viewBox="0 0 24 24" version="1.1" xmlns="http://www.w3.org/2000/svg" xmlns:xlink="http://www.w3.org/1999/xlink">
    <!-- Generator: sketchtool 63.1 (101010) - https://sketch.com -->
    <title>C9A577D0-A929-4667-9873-90F2703A6435</title>
    <desc>Created with sketchtool.</desc>
    <g id="Final" stroke="none" stroke-width="1" fill="none" fill-rule="evenodd">
        <g id="Products" transform="translate(-1326.000000, -2155.000000)">
            <g id="Group" transform="translate(372.000000, 1814.000000)">
                <g id="Group-3" transform="translate(720.000000, 56.000000)">
                    <g id="Group-37" transform="translate(0.000000, 273.000000)">
                        <g id="Group-7" transform="translate(198.000000, 12.000000)">
                            <g id="Group-33" transform="translate(36.000000, 0.000000)">
                                <circle id="Oval-Copy-3" stroke="#5C6BDD" fill="#FFFFFF" cx="12" cy="12" r="11.5"></circle>
                                <g id="iconfinder_apple_386450" transform="translate(6.000000, 5.000000)" fill="#5C6BDD" fill-rule="nonzero">
                                    <path d="M6.76354457,1.06042407 C7.29483568,0.469312072 8.19286405,0.0295558244 8.93390738,0 C9.02842946,0.8211791 8.68059489,1.64344733 8.16640113,2.23595935 C7.65138401,2.82738262 6.80842133,3.28813883 5.98107611,3.22669425 C5.86863763,2.4232489 6.28551808,1.58542524 6.76354457,1.06042407 Z M10.9793399,12.261999 C10.3643761,13.1153789 9.72837395,13.9636243 8.72431811,13.981358 C7.73620602,13.9990913 7.41943998,13.4257123 6.29176181,13.4257123 C5.16293825,13.4257123 4.80967473,13.9636243 3.87679986,13.9990913 C2.90742322,14.0336243 2.17016644,13.0774231 1.55043402,12.227777 C0.284184599,10.4906851 -0.682721989,7.31594582 0.617224627,5.17347562 C1.26095425,4.10947414 2.4146022,3.4363838 3.66441463,3.41849505 C4.61652669,3.40185047 5.51587156,4.02780748 6.09713432,4.02780748 C6.67970886,4.02780748 7.77138271,3.27631715 8.91878693,3.38660589 C9.39911618,3.40542798 10.7472287,3.57031753 11.6132022,4.77291949 C11.5446542,4.81554158 10.0040498,5.66658765 10.0226223,7.43930164 C10.0413663,9.55688308 11.977478,10.2606176 12,10.2702618 C11.9822466,10.3200401 11.690301,11.2751529 10.9793399,12.261999 L10.9793399,12.261999 Z" id="Apple"></path>
                                </g>
                            </g>
                        </g>
                    </g>
                </g>
            </g>
        </g>
    </g>
</svg>