<?xml version="1.0" encoding="UTF-8"?>
<svg width="91px" height="90px" viewBox="0 0 91 90" version="1.1" xmlns="http://www.w3.org/2000/svg" xmlns:xlink="http://www.w3.org/1999/xlink">
    <!-- Generator: sketchtool 62 (101010) - https://sketch.com -->
    <title>EAEF1D0E-7B8B-4A16-B082-AAD1A0E976B8</title>
    <desc>Created with sketchtool.</desc>
    <g id="Final" stroke="none" stroke-width="1" fill="none" fill-rule="evenodd">
        <g id="Landing" transform="translate(-565.000000, -3054.000000)">
            <g id="Group-40" transform="translate(252.000000, 2703.000000)">
                <g id="Group-38" transform="translate(220.000000, 311.000000)">
                    <g id="Group-37">
                        <g id="1" transform="translate(93.000000, 40.000000)">
                            <rect id="Rectangle-Copy-2" fill-opacity="0.01" fill="#FFFFFF" x="0" y="0" width="90" height="90"></rect>
                            <g id="Group-53" transform="translate(0.000000, 7.000000)">
                                <g id="Group-4" transform="translate(0.468750, 28.125000)">
                                    <path d="M15.2712849,0.110697115 L9.42145037,0.110697115 C7.56790257,0.110697115 5.92077022,1.3265625 5.32143199,3.13629808 L1.04538419,16.0510817 C0.706946691,17.0722356 0.699612132,18.1777644 1.02338051,19.2032452 L7.96396875,41.1980769 L17.5607151,41.1980769" id="Fill-1" fill="#FEFEFE"></path>
                                    <path d="M15.2712849,0.110697115 L9.42145037,0.110697115 C7.56790257,0.110697115 5.92077022,1.3265625 5.32143199,3.13629808 L1.04538419,16.0510817 C0.706946691,17.0722356 0.699612132,18.1777644 1.02338051,19.2032452 L7.96396875,41.1980769 L17.5607151,41.1980769" id="Stroke-3" stroke="#5C6BDD" stroke-width="1.5"></path>
                                </g>
                                <path d="M57.65625,61.5450559 C57.65625,63.2809942 56.2391171,64.6875 54.4876529,64.6875 L19.5748471,64.6875 C17.8244614,64.6875 16.40625,63.2809942 16.40625,61.5450559 L16.40625,3.14244407 C16.40625,1.41399287 17.8244614,0 19.5748471,0 L54.4876529,0 C56.2391171,0 57.65625,1.41399287 57.65625,3.14244407 L57.65625,61.5450559 Z" id="Fill-5" stroke="#5C6BDD"></path>
                                <path d="M57.65625,61.5450559 C57.65625,63.2809942 56.2391171,64.6875 54.4876529,64.6875 L19.5748471,64.6875 C17.8244614,64.6875 16.40625,63.2809942 16.40625,61.5450559 L16.40625,3.14244407 C16.40625,1.41399287 17.8244614,0 19.5748471,0 L54.4876529,0 C56.2391171,0 57.65625,1.41399287 57.65625,3.14244407 L57.65625,61.5450559 Z" id="Stroke-7" stroke="#5C6BDD" stroke-width="1.5"></path>
                                <line x1="57.65625" y1="54.84375" x2="16.40625" y2="54.84375" id="Stroke-9" stroke="#5C6BDD" stroke-width="1.5"></line>
                                <line x1="16.40625" y1="7.03125" x2="57.65625" y2="7.03125" id="Stroke-11" stroke="#5C6BDD" stroke-width="1.5"></line>
                                <line x1="32.34375" y1="3.28125" x2="42.65625" y2="3.28125" id="Stroke-13" stroke="#5C6BDD" stroke-width="1.5"></line>
                                <path d="M35.15625,60.9375 C35.15625,58.8670922 36.4157246,57.1875 37.9692401,57.1875 C39.5217754,57.1875 40.78125,58.8670922 40.78125,60.9375" id="Stroke-15" stroke="#5C6BDD" stroke-width="1.5"></path>
                                <path d="M44.53125,21.093329 C44.53125,25.4947298 40.9634798,29.0625 36.562921,29.0625 C32.1615202,29.0625 28.59375,25.4947298 28.59375,21.093329 C28.59375,16.6919282 32.1615202,13.125 36.562921,13.125 C40.9634798,13.125 44.53125,16.6919282 44.53125,21.093329 Z" id="Stroke-17" stroke="#5C6BDD" stroke-width="1.5"></path>
                                <path d="M45.6504165,45 L27.4745835,45 C25.5036459,45 23.90625,43.5303601 23.90625,41.7182608 C23.90625,39.9071399 25.5036459,38.4375 27.4745835,38.4375 L45.6504165,38.4375 C47.6213541,38.4375 49.21875,39.9071399 49.21875,41.7182608 C49.21875,43.5303601 47.6213541,45 45.6504165,45 Z" id="Stroke-19" stroke="#5C6BDD" stroke-width="1.5"></path>
                                <g id="Group-24" transform="translate(41.718750, 39.375000)">
                                    <path d="M29.5020125,8.33538971 L27.684075,6.49543566 C25.2711375,4.05327574 28.9187,0.362613971 31.3327,2.80369853 L34.3162,5.82548162 C46.4956375,16.6393787 42.593075,20.7623382 42.593075,20.7623382 L47.348825,25.5746085 L36.558075,36.4971176 L32.350575,32.2397371 C25.94795,38.7177518 16.2537,28.1662445 16.2537,28.1662445 C13.693075,26.6843879 3.1456375,21.8108217 3.1456375,21.8108217 C3.9573875,15.0166489 11.0570125,17.6168879 17.07395,20.9032114 L17.2280125,20.7784687 L1.8090125,5.17380882 C-0.8993,2.43162132 3.1945125,-1.71284559 5.9038875,1.02826654 L17.94095,13.212182 L16.1017625,11.3496452 C13.3923875,8.60853309 17.484075,4.46084007 20.195575,7.20517831 L22.724325,9.76347794" id="Fill-21" fill="#FEFEFE"></path>
                                    <path d="M29.5020125,8.33538971 L27.684075,6.49543566 C25.2711375,4.05327574 28.9187,0.362613971 31.3327,2.80369853 L34.3162,5.82548162 C46.4956375,16.6393787 42.593075,20.7623382 42.593075,20.7623382 L47.348825,25.5746085 L36.558075,36.4971176 L32.350575,32.2397371 C25.94795,38.7177518 16.2537,28.1662445 16.2537,28.1662445 C13.693075,26.6843879 3.1456375,21.8108217 3.1456375,21.8108217 C3.9573875,15.0166489 11.0570125,17.6168879 17.07395,20.9032114 L17.2280125,20.7784687 L1.8090125,5.17380882 C-0.8993,2.43162132 3.1945125,-1.71284559 5.9038875,1.02826654 L17.94095,13.212182 L16.1017625,11.3496452 C13.3923875,8.60853309 17.484075,4.46084007 20.195575,7.20517831 L22.724325,9.76347794" id="Stroke-23" stroke="#5C6BDD" stroke-width="1.5"></path>
                                </g>
                                <g id="Group-28" transform="translate(62.343750, 43.125000)">
                                    <path d="M4.76988281,9.09726562 L1.54722656,5.8734375 C-1.44105469,2.88632812 3.07300781,-1.63242188 6.06363281,1.35820312 L9.36246094,4.65703125" id="Fill-25" fill="#FEFEFE"></path>
                                    <path d="M4.76988281,9.09726562 L1.54722656,5.8734375 C-1.44105469,2.88632812 3.07300781,-1.63242188 6.06363281,1.35820312 L9.36246094,4.65703125" id="Stroke-27" stroke="#5C6BDD" stroke-width="1.5"></path>
                                </g>
                                <path d="M50.0213907,63.75 L51.09375,61.5228698 C51.09375,61.5228698 48.6389203,60.4018239 47.34375,60" id="Stroke-29" stroke="#5C6BDD" stroke-width="1.5"></path>
                                <path d="M41.71875,19.6875 C41.71875,22.276421 39.620171,24.375 37.03125,24.375 C34.442329,24.375 32.34375,22.276421 32.34375,19.6875 C32.34375,17.098579 34.442329,15 37.03125,15 C39.620171,15 41.71875,17.098579 41.71875,19.6875" id="Fill-31" fill="#FEFEFE"></path>
                                <g id="Group-42" transform="translate(7.031250, 31.875000)">
                                    <path d="M0.91980625,34.3397841 L14.8874313,34.3397841 L14.8874313,19.5996989 C14.8874313,18.428733 14.3806188,17.3134773 13.4966187,16.5356364 L12.4075563,15.577 L12.4075563,4.10489773 C12.4075563,2.04046591 10.6161813,0.390181818 8.48799375,0.590948864 C6.63180625,0.7654375 5.26968125,2.41256818 5.26968125,4.25626136 L5.26968125,17.4679943 L1.70074375,21.3225114" id="Fill-39" fill="#FEFEFE"></path>
                                    <path d="M0.91980625,34.3397841 L14.8874313,34.3397841 L14.8874313,19.5996989 C14.8874313,18.428733 14.3806188,17.3134773 13.4966187,16.5356364 L12.4075563,15.577 L12.4075563,4.10489773 C12.4075563,2.04046591 10.6161813,0.390181818 8.48799375,0.590948864 C6.63180625,0.7654375 5.26968125,2.41256818 5.26968125,4.25626136 L5.26968125,17.4679943 L1.70074375,21.3225114" id="Stroke-41" stroke="#5C6BDD" stroke-width="1.5"></path>
                                </g>
                                <line x1="14.53125" y1="37.03125" x2="18.28125" y2="37.03125" id="Stroke-43" stroke="#5C6BDD" stroke-width="1.5"></line>
                                <g id="Group-48" transform="translate(5.156250, 62.812500)">
                                    <polyline id="Fill-45" fill="#FEFEFE" points="0.258453125 11.7374766 0.258453125 0.354351563 18.7231406 0.354351563 18.7231406 11.7374766"></polyline>
                                    <polyline id="Stroke-47" stroke="#5C6BDD" stroke-width="1.5" points="0.258453125 11.7374766 0.258453125 0.354351563 18.7231406 0.354351563 18.7231406 11.7374766"></polyline>
                                </g>
                                <line x1="8.90625" y1="67.03125" x2="10.78125" y2="67.03125" id="Stroke-49" stroke="#5C6BDD" stroke-width="1.5"></line>
                            </g>
                        </g>
                    </g>
                </g>
            </g>
        </g>
    </g>
</svg>