<?xml version="1.0" encoding="UTF-8"?>
<svg width="120px" height="120px" viewBox="0 0 120 120" version="1.1" xmlns="http://www.w3.org/2000/svg" xmlns:xlink="http://www.w3.org/1999/xlink">
    <!-- Generator: sketchtool 62 (101010) - https://sketch.com -->
    <title>3B016828-09EA-4C48-A340-838D049A2133</title>
    <desc>Created with sketchtool.</desc>
    <g id="Final" stroke="none" stroke-width="1" fill="none" fill-rule="evenodd">
        <g id="Landing" transform="translate(-1303.000000, -2279.000000)">
            <g id="Group-25" transform="translate(372.000000, 2105.000000)">
                <g id="Group-22" transform="translate(0.000000, 174.000000)">
                    <g id="Group-19">
                        <g id="Group-10" transform="translate(800.000000, 0.000000)">
                            <g id="Group-39-Copy" transform="translate(58.000000, 0.000000)">
                                <g id="Products" transform="translate(73.000000, 0.000000)">
                                    <circle id="Oval" fill-opacity="0.1" fill="#5C6BDD" cx="60" cy="60" r="60"></circle>
                                    <g id="Group-11" transform="translate(30.000000, 36.000000)" stroke="#5C6BDD" stroke-linecap="round" stroke-linejoin="round" stroke-width="2">
                                        <polyline id="Stroke-1" points="8.75 19.07475 8.75 38.74975 28.75 46.24975 28.75 16.24975 8.75 8.74975"></polyline>
                                        <polyline id="Stroke-3" points="51.25 8.75 28.75 16.25 28.75 46.25 51.25 38.75 51.25 18.75"></polyline>
                                        <polygon id="Stroke-5" points="8.75 8.75 28.75 16.25 51.25 8.75 28.75 1.25"></polygon>
                                        <polygon id="Stroke-7" points="28.75 16.25 36.25 23.75 58.75 16.25 51.25 8.75"></polygon>
                                        <polygon id="Stroke-9" points="28.75 16.25 21.25 23.75 1.25 16.25 8.75 8.75"></polygon>
                                    </g>
                                </g>
                            </g>
                        </g>
                    </g>
                </g>
            </g>
        </g>
    </g>
</svg>