<?xml version="1.0" encoding="UTF-8"?>
<svg width="40px" height="40px" viewBox="0 0 40 40" version="1.1" xmlns="http://www.w3.org/2000/svg" xmlns:xlink="http://www.w3.org/1999/xlink">
    <!-- Generator: sketchtool 63.1 (101010) - https://sketch.com -->
    <title>12AEAD3D-8B75-4109-B9DC-44451313BAB1</title>
    <desc>Created with sketchtool.</desc>
    <g id="Final" stroke="none" stroke-width="1" fill="none" fill-rule="evenodd">
        <g id="Landing" transform="translate(-1328.000000, -6090.000000)" fill-rule="nonzero">
            <g id="Group-15" transform="translate(0.000000, 5930.000000)">
                <g id="footer" transform="translate(0.000000, 140.000000)">
                    <g id="Group-41" transform="translate(1328.000000, 20.000000)">
                        <g id="facebook">
                            <path d="M23.2247925,39.66265 C23.0581665,39.6974156 22.8909302,39.7294469 22.7230835,39.7587437 C22.8909302,39.7294469 23.0581665,39.6974156 23.2247925,39.66265 Z" id="Path" fill="#000000"></path>
                            <path d="M23.624878,39.5991133 C23.545227,39.6178633 23.4655762,39.6350508 23.3859253,39.6526289 C23.4655762,39.6350508 23.545227,39.6178633 23.624878,39.5991133 Z" id="Path" fill="#000000"></path>
                            <path d="M22.2763062,39.7954199 C22.0812988,39.8235449 21.8850708,39.8485449 21.6882324,39.8696386 C21.8850708,39.8485449 22.0812988,39.8235449 22.2763062,39.7954199 Z" id="Path" fill="#000000"></path>
                            <path d="M22.6605225,39.751741 C22.5668335,39.7677567 22.4725342,39.7826004 22.37854,39.7966629 C22.4725342,39.7826004 22.5668335,39.7677567 22.6605225,39.751741 Z" id="Path" fill="#000000"></path>
                            <path d="M24.1693116,39.4909475 C24.0991211,39.5100881 24.0286255,39.5292288 23.9581298,39.5475881 C24.0286255,39.5292288 24.0991211,39.5100881 24.1693116,39.4909475 Z" id="Path" fill="#000000"></path>
                            <path d="M25.5206298,39.1554782 C25.4638672,39.1761813 25.4071045,39.1957126 25.3503418,39.2160251 C25.4071045,39.1957126 25.4638672,39.1761813 25.5206298,39.1554782 Z" id="Path" fill="#000000"></path>
                            <path d="M25.1119995,39.2668258 C25.050354,39.2875289 24.9884033,39.3086227 24.9264527,39.3285445 C24.9884033,39.3086227 25.050354,39.2879195 25.1119995,39.2668258 Z" id="Path" fill="#000000"></path>
                            <path d="M24.5773316,39.4007915 C24.5120239,39.4203228 24.4461059,39.4386821 24.380188,39.4574321 C24.4461059,39.4386821 24.5120239,39.4203228 24.5773316,39.4007915 Z" id="Path" fill="#000000"></path>
                            <path d="M21.6818238,39.8587179 C21.5765381,39.870046 21.4712524,39.8802023 21.3656616,39.8891866 C21.4712524,39.8802023 21.5765381,39.870046 21.6818238,39.8587179 Z" id="Path" fill="#000000"></path>
                            <path d="M40,19.9610136 C40,8.93853559 31.0440063,0 20,0 C8.95599367,0 0,8.93853559 0,19.9610136 C0,30.9834917 8.95599367,39.9220273 20,39.9220273 C20.1174927,39.9220273 20.234375,39.9195906 20.3515625,39.9174586 L20.3515625,24.378655 L16.0546875,24.378655 L16.0546875,19.3807871 L20.3515625,19.3807871 L20.3515625,15.7029727 C20.3515625,11.4376218 22.9605102,9.1161062 26.7727661,9.1161062 C28.5983277,9.1161062 30.1675415,9.25194932 30.625,9.31256094 L30.625,13.7704069 L27.9962158,13.7704069 C25.9222412,13.7704069 25.5206298,14.7542032 25.5206298,16.1976121 L25.5206298,19.3807871 L30.4797363,19.3807871 L29.8333741,24.378655 L25.5206298,24.378655 L25.5206298,39.1508285 C33.8803101,36.7589547 40,29.0722465 40,19.9610136 Z" id="Path" fill="#9B9B9B"></path>
                            <path d="M21.3214111,39.8841839 C21.1132813,39.9013713 20.9042359,39.9150432 20.6945801,39.9240276 C20.9042359,39.9150432 21.1132813,39.9013713 21.3214111,39.8841839 Z" id="Path" fill="#000000"></path>
                            <path d="M20.6838989,39.919087 C20.5734253,39.9237744 20.4626465,39.9272901 20.3518677,39.9296338 C20.4626465,39.9272901 20.5734253,39.9237744 20.6838989,39.919087 Z" id="Path" fill="#000000"></path>
                        </g>
                    </g>
                </g>
            </g>
        </g>
    </g>
</svg>