<?xml version="1.0" encoding="UTF-8"?>
<svg width="40px" height="40px" viewBox="0 0 40 40" version="1.1" xmlns="http://www.w3.org/2000/svg" xmlns:xlink="http://www.w3.org/1999/xlink">
    <!-- Generator: sketchtool 63.1 (101010) - https://sketch.com -->
    <title>5BC7DF2C-5531-4C62-8E0D-0F7D47117DCF</title>
    <desc>Created with sketchtool.</desc>
    <g id="Final" stroke="none" stroke-width="1" fill="none" fill-rule="evenodd">
        <g id="Landing" transform="translate(-1568.000000, -6090.000000)" fill="#9B9B9B" fill-rule="nonzero">
            <g id="Group-15" transform="translate(0.000000, 5930.000000)">
                <g id="footer" transform="translate(0.000000, 140.000000)">
                    <g id="Group-41" transform="translate(1328.000000, 20.000000)">
                        <g id="pinterest" transform="translate(240.000000, 0.000000)">
                            <path d="M19.9489796,0 C8.93183673,0 0,8.93142857 0,19.9489796 C0,30.9665306 8.93183673,39.8979592 19.9489796,39.8979592 C30.9661224,39.8979592 39.8979592,30.9665306 39.8979592,19.9489796 C39.8979592,8.93142857 30.9661224,0 19.9489796,0 Z M22.2444898,26.575102 C20.3991837,26.575102 18.6636735,25.577551 18.0693878,24.444898 C18.0693878,24.444898 17.0767347,28.3816327 16.8681633,29.1412245 C16.1281633,31.8269388 13.9514286,34.5134694 13.7820408,34.7334694 C13.6640816,34.8865306 13.4032653,34.8387755 13.3763265,34.6355102 C13.3302041,34.2934694 12.7742857,30.9053061 13.4281633,28.1420408 C13.755102,26.7542857 15.6253061,18.8302041 15.6253061,18.8302041 C15.6253061,18.8302041 15.0808163,17.7391837 15.0808163,16.1261224 C15.0808163,13.5934694 16.5485714,11.7028571 18.3763265,11.7028571 C19.9302041,11.7028571 20.6804082,12.8697959 20.6804082,14.2685714 C20.6804082,15.8310204 19.6861224,18.1673469 19.1730612,20.3322449 C18.7440816,22.144898 20.0812245,23.6236735 21.8689796,23.6236735 C25.1069388,23.6236735 27.2861224,19.4653061 27.2861224,14.537551 C27.2861224,10.7930612 24.7653061,7.98897959 20.1767347,7.98897959 C14.9942857,7.98897959 11.762449,11.8546939 11.762449,16.1734694 C11.762449,17.6616327 12.202449,18.7126531 12.8906122,19.5244898 C13.2061224,19.8979592 13.2510204,20.0481633 13.1363265,20.4767347 C13.0534694,20.7914286 12.8669388,21.5481633 12.7877551,21.8473469 C12.6738776,22.2808163 12.3236735,22.435102 11.9314286,22.2755102 C9.54530612,21.3012245 8.43265306,18.6865306 8.43265306,15.7473469 C8.43265306,10.8930612 12.5261224,5.0722449 20.6457143,5.0722449 C27.1702041,5.0722449 31.4644898,9.79306122 31.4644898,14.8616327 C31.464898,21.5669388 27.7371429,26.575102 22.2444898,26.575102 Z" id="Shape"></path>
                        </g>
                    </g>
                </g>
            </g>
        </g>
    </g>
</svg>