<?xml version="1.0" encoding="UTF-8"?>
<svg width="80px" height="80px" viewBox="0 0 80 80" version="1.1" xmlns="http://www.w3.org/2000/svg" xmlns:xlink="http://www.w3.org/1999/xlink">
    <!-- Generator: sketchtool 62 (101010) - https://sketch.com -->
    <title>90DB702A-A842-4AEC-849B-D8E39E8E7010</title>
    <desc>Created with sketchtool.</desc>
    <g id="Final" stroke="none" stroke-width="1" fill="none" fill-rule="evenodd">
        <g id="Landing" transform="translate(-392.000000, -1363.000000)">
            <g id="Group-6" transform="translate(372.000000, 1333.000000)">
                <g id="Marketing">
                    <g id="Group-24" transform="translate(20.000000, 30.000000)">
                        <g id="Group-23">
                            <g id="Logo_Marketing">
                                <circle id="Oval" fill-opacity="0.1" fill="#5C6BDD" cx="40" cy="40" r="40"></circle>
                                <g id="Group-7" transform="translate(20.000000, 23.000000)" stroke="#5C6BDD" stroke-linecap="round" stroke-linejoin="round" stroke-width="2">
                                    <path d="M37.0703333,29.8806667 L15.8336667,22.1056667 L15.8336667,7.10566667 L37.1503333,0.870666667 C38.1886667,0.649 39.167,1.44066667 39.167,2.50066667 L39.167,28.269 C39.167,29.364 38.1286667,30.1623333 37.0703333,29.8806667 Z" id="Stroke-1"></path>
                                    <path d="M10.4296667,34.9213333 L7.09633333,34.088 C6.35466667,33.903 5.833,33.2346667 5.833,32.4696667 L5.833,22.1063333 L12.4996667,22.1063333 L12.4996667,33.303 C12.4996667,34.3896667 11.4813333,35.1846667 10.4296667,34.9213333 Z" id="Stroke-3"></path>
                                    <path d="M5.83333333,22.1055 L15.8333333,22.1055 L15.8333333,7.1055 L5.83333333,7.1055 C3.07166667,7.1055 0.833333333,9.34383333 0.833333333,12.1055 L0.833333333,17.1055 C0.833333333,19.8671667 3.07166667,22.1055 5.83333333,22.1055 Z" id="Stroke-5"></path>
                                </g>
                            </g>
                        </g>
                    </g>
                </g>
            </g>
        </g>
    </g>
</svg>