<?xml version="1.0" encoding="UTF-8"?>
<svg width="80px" height="80px" viewBox="0 0 80 80" version="1.1" xmlns="http://www.w3.org/2000/svg" xmlns:xlink="http://www.w3.org/1999/xlink">
    <!-- Generator: sketchtool 62 (101010) - https://sketch.com -->
    <title>B667D3C8-335D-4D7A-AB92-0DA024639114</title>
    <desc>Created with sketchtool.</desc>
    <g id="Final" stroke="none" stroke-width="1" fill="none" fill-rule="evenodd">
        <g id="Landing" transform="translate(-692.000000, -1363.000000)">
            <g id="Group-6" transform="translate(372.000000, 1333.000000)">
                <g id="Communication" transform="translate(300.000000, 0.000000)">
                    <g id="Group-24" transform="translate(20.000000, 30.000000)">
                        <g id="Group-23">
                            <g id="Logo_Communication">
                                <circle id="Oval" fill-opacity="0.1" fill="#5C6BDD" cx="40" cy="40" r="40"></circle>
                                <g id="Group-5" transform="translate(20.000000, 23.000000)" stroke="#5C6BDD" stroke-linecap="round" stroke-linejoin="round" stroke-width="2">
                                    <path d="M29.1666667,0.833333333 L2.5,0.833333333 C1.58,0.833333333 0.833333333,1.57833333 0.833333333,2.5 L0.833333333,20.8333333 C0.833333333,21.755 1.58,22.5 2.5,22.5 L7.5,22.5 L7.5,30.8333333 L19.1666667,22.5 L29.1666667,22.5 C30.0866667,22.5 30.8333333,21.755 30.8333333,20.8333333 L30.8333333,2.5 C30.8333333,1.57833333 30.0866667,0.833333333 29.1666667,0.833333333 Z" id="Stroke-1"></path>
                                    <path d="M20.8333333,27.5 L24.1666667,27.5 L32.5,34.1666667 L32.5,27.5 L37.5,27.5 C38.42,27.5 39.1666667,26.755 39.1666667,25.8333333 L39.1666667,7.5 C39.1666667,6.57833333 38.42,5.83333333 37.5,5.83333333 L35.8333333,5.83333333" id="Stroke-3"></path>
                                </g>
                            </g>
                        </g>
                    </g>
                </g>
            </g>
        </g>
    </g>
</svg>