<?xml version="1.0" encoding="UTF-8"?>
<svg width="80px" height="80px" viewBox="0 0 80 80" version="1.1" xmlns="http://www.w3.org/2000/svg" xmlns:xlink="http://www.w3.org/1999/xlink">
    <!-- Generator: sketchtool 62 (101010) - https://sketch.com -->
    <title>552F13C2-D098-4531-A424-6C3CE26A8E4D</title>
    <desc>Created with sketchtool.</desc>
    <g id="Final" stroke="none" stroke-width="1" fill="none" fill-rule="evenodd">
        <g id="Landing" transform="translate(-1292.000000, -1363.000000)">
            <g id="Group-6" transform="translate(372.000000, 1333.000000)">
                <g id="Mobile_Apps" transform="translate(900.000000, 0.000000)">
                    <g id="Group-24" transform="translate(20.000000, 30.000000)">
                        <g id="Group-23">
                            <g id="Logo_MobileApp">
                                <circle id="Oval" fill-opacity="0.1" fill="#5C6BDD" cx="40" cy="40" r="40"></circle>
                                <g id="Group-9" transform="translate(27.000000, 20.000000)">
                                    <path d="M24.1666667,39.1666667 L2.5,39.1666667 C1.57833333,39.1666667 0.833333333,38.4216667 0.833333333,37.5 L0.833333333,2.5 C0.833333333,1.57833333 1.57833333,0.833333333 2.5,0.833333333 L24.1666667,0.833333333 C25.0883333,0.833333333 25.8333333,1.57833333 25.8333333,2.5 L25.8333333,37.5 C25.8333333,38.4216667 25.0883333,39.1666667 24.1666667,39.1666667 Z" id="Stroke-1" stroke="#5C6BDD" stroke-width="2" stroke-linecap="round" stroke-linejoin="round"></path>
                                    <line x1="0.833333333" y1="30.8333333" x2="25.8333333" y2="30.8333333" id="Stroke-3" stroke="#5C6BDD" stroke-width="2" stroke-linecap="round" stroke-linejoin="round"></line>
                                    <line x1="0.833333333" y1="5.83333333" x2="25.8333333" y2="5.83333333" id="Stroke-5" stroke="#5C6BDD" stroke-width="2" stroke-linecap="round" stroke-linejoin="round"></line>
                                    <path d="M15,35 C15,35.9216667 14.255,36.6666667 13.3333333,36.6666667 C12.4116667,36.6666667 11.6666667,35.9216667 11.6666667,35 C11.6666667,34.0783333 12.4116667,33.3333333 13.3333333,33.3333333 C14.255,33.3333333 15,34.0783333 15,35" id="Fill-7" fill="#5C6BDD"></path>
                                </g>
                            </g>
                        </g>
                    </g>
                </g>
            </g>
        </g>
    </g>
</svg>