<?xml version="1.0" encoding="UTF-8"?>
<svg width="10px" height="20px" viewBox="0 0 10 20" version="1.1" xmlns="http://www.w3.org/2000/svg" xmlns:xlink="http://www.w3.org/1999/xlink">
    <!-- Generator: sketchtool 63.1 (101010) - https://sketch.com -->
    <title>C857FDE4-F9B0-4832-B385-14B56DD2210B</title>
    <desc>Created with sketchtool.</desc>
    <g id="Final" stroke="none" stroke-width="1" fill="none" fill-rule="evenodd">
        <g id="Guide-Default" transform="translate(-1501.000000, -918.000000)" fill="#5C6BDD" fill-rule="nonzero" stroke="#41434C">
            <g id="Group-34" transform="translate(372.000000, 872.000000)">
                <g id="Group-3" transform="translate(1134.000000, 56.000000) rotate(-90.000000) translate(-1134.000000, -56.000000) translate(1122.000000, 44.000000)">
                    <g id="Group-34-Copy" transform="translate(12.000000, 12.000000) scale(-1, 1) rotate(-270.000000) translate(-12.000000, -12.000000) translate(7.500000, 3.000000)">
                        <path d="M1.16627022,8.99952844 L8.85812012,0.870435371 C9.04729329,0.670508772 9.04729329,0.349871774 8.85812012,0.149945174 C8.66894695,-0.0499817248 8.36555614,-0.0499817248 8.17638297,0.149945174 L0.141879878,8.64116944 C-0.0472932927,8.84109604 -0.0472932927,9.16173304 0.141879878,9.36165994 L8.17638297,17.849112 C8.26918494,17.9471892 8.39411055,18 8.51546693,18 C8.63682331,18 8.76174892,17.9509614 8.85455089,17.849112 C9.04372406,17.6491854 9.04372406,17.3285481 8.85455089,17.1286215 L1.16627022,8.99952844 Z" id="Path" transform="translate(4.500000, 9.000000) rotate(-180.000000) translate(-4.500000, -9.000000) "></path>
                    </g>
                </g>
            </g>
        </g>
    </g>
</svg>