<?xml version="1.0" encoding="UTF-8"?>
<svg width="60px" height="60px" viewBox="0 0 60 60" version="1.1" xmlns="http://www.w3.org/2000/svg" xmlns:xlink="http://www.w3.org/1999/xlink">
    <!-- Generator: sketchtool 63.1 (101010) - https://sketch.com -->
    <title>8916ABAB-E30D-42F2-A597-3F8F4515F01C</title>
    <desc>Created with sketchtool.</desc>
    <g id="Final" stroke="none" stroke-width="1" fill="none" fill-rule="evenodd">
        <g id="Guide-Default" transform="translate(-402.000000, -483.000000)">
            <g id="Group-8" transform="translate(402.000000, 483.000000)">
                <g id="Group-14">
                    <circle id="Oval" fill-opacity="0.1" fill="#5C6BDD" cx="30" cy="30" r="30"></circle>
                    <g id="Group-5" transform="translate(18.000000, 15.000000)" stroke="#5C6BDD" stroke-linecap="round" stroke-linejoin="round" stroke-width="2">
                        <path d="M6.43575,10.625 L6.43575,6.25 C6.43575,3.14375 8.9545,0.625 12.06075,0.625 C15.167,0.625 17.68575,3.14375 17.68575,6.25 L17.68575,10.625" id="Stroke-1"></path>
                        <path d="M19.74625,29.375 L4.375,29.375 C2.14125,29.375 0.40125,27.43125 0.64875,25.21125 L2.68625,6.875 L21.43625,6.875 L23.4725,25.21125 C23.72,27.43125 21.98125,29.375 19.74625,29.375 Z" id="Stroke-3"></path>
                        <g id="Group-10" transform="translate(6.666667, 14.166667)">
                            <path d="M1.91858333,3.47208333 L1.0855,2.0865 L2.08541667,1.08658333 L3.47208333,1.91858333 L3.471,1.92075 C3.73533333,1.77125 4.017,1.65316667 4.31925,1.56866667 L4.70925,0 L6.123,0 L6.513,1.56866667 C6.81525,1.65316667 7.09691667,1.77125 7.36125,1.92075 L7.36016667,1.91858333 L8.74683333,1.08658333 L9.74675,2.0865 L8.91366667,3.47208333 L8.9115,3.471 C9.06208333,3.73533333 9.17908333,4.01808333 9.26358333,4.31925 L10.8333333,4.71033333 L10.8333333,6.123 L9.26358333,6.51408333 C9.17908333,6.81525 9.06208333,7.098 8.9115,7.36233333 L8.91366667,7.36125 L9.74675,8.74683333 L8.74683333,9.74675 L7.36016667,8.91366667 L7.36125,8.9115 C7.09691667,9.06208333 6.81525,9.18016667 6.513,9.26466667 L6.123,10.8333333 L4.70925,10.8333333 L4.31925,9.26466667 C4.017,9.18016667 3.73533333,9.06208333 3.471,8.9115 L3.47208333,8.91366667 L2.08541667,9.74675 L1.0855,8.74683333 L1.91858333,7.36125 L1.92075,7.36233333 C1.77016667,7.098 1.65316667,6.81525 1.56866667,6.51408333 L0,6.123 L0,4.71033333 L1.56866667,4.31925 C1.65316667,4.01808333 1.77016667,3.73533333 1.92075,3.471 L1.91858333,3.47208333 Z" id="Stroke-5"></path>
                        </g>
                    </g>
                </g>
            </g>
        </g>
    </g>
</svg>