<?xml version="1.0" encoding="UTF-8"?>
<svg width="60px" height="60px" viewBox="0 0 60 60" version="1.1" xmlns="http://www.w3.org/2000/svg" xmlns:xlink="http://www.w3.org/1999/xlink">
    <!-- Generator: sketchtool 63.1 (101010) - https://sketch.com -->
    <title>B813CAF8-3611-41B0-9C32-5F9997A09516</title>
    <desc>Created with sketchtool.</desc>
    <g id="Final" stroke="none" stroke-width="1" fill="none" fill-rule="evenodd">
        <g id="Guide-Default" transform="translate(-402.000000, -889.000000)">
            <g id="Group-8" transform="translate(402.000000, 889.000000)">
                <g id="Group-21">
                    <circle id="Oval" fill-opacity="0.1" fill="#5C6BDD" cx="30" cy="30" r="30"></circle>
                    <g id="Group-13" transform="translate(15.000000, 15.000000)" stroke="#5C6BDD" stroke-linecap="round" stroke-linejoin="round" stroke-width="2">
                        <polyline id="Stroke-1" points="11.3379671 13.7642259 6.09043765 8.51669647 6.06502588 8.50399059"></polyline>
                        <g id="Group-12" transform="translate(0.000000, 0.652320)">
                            <polygon id="Stroke-2" points="6.92432471 7.03061647 5.12771294 8.82722824 2.43279529 7.92892235 0.634912941 4.33569882 2.43279529 2.53908706 6.02601882 4.33569882"></polygon>
                            <path d="M19.65384,16.0451859 L25.8288988,22.2202447 C26.5785459,22.9559153 26.9470165,23.9355388 26.9470165,24.9126212 C26.9470165,25.8922447 26.5785459,26.8705976 25.8288988,27.6075388 C24.3423106,29.1068329 21.9281929,29.1068329 20.4288988,27.6075388 L14.2678165,21.4451859" id="Stroke-4"></path>
                            <path d="M14.9784565,9.95894118 L2.46316235,22.4742353 C1.72622118,23.2238824 1.34504471,24.1895294 1.34504471,25.1678824 C1.34504471,26.1462353 1.72622118,27.1118824 2.46316235,27.8615294 C3.96245647,29.3481176 6.37657412,29.3481176 7.86316235,27.8615294 L14.2669271,21.4450588 L19.6542212,16.0450588 L20.3530447,15.3462353" id="Stroke-6"></path>
                            <path d="M29.69568,6.02316706 C30.3779859,8.55672 29.7223624,11.3875906 27.7275388,13.3811435 C24.7543624,16.3555906 19.9210447,16.3555906 16.9465976,13.3811435 C13.9734212,10.4066965 13.9734212,5.57337882 16.9465976,2.60020235 C18.9414212,0.605378824 21.7722918,-0.0502447059 24.3058447,0.632061176" id="Stroke-8"></path>
                            <polyline id="Stroke-10" points="29.69568 6.02316706 26.1164329 8.88961412 21.8612329 8.58467294 21.4393976 3.97243765 24.3058447 0.632061176"></polyline>
                        </g>
                    </g>
                </g>
            </g>
        </g>
    </g>
</svg>