<?xml version="1.0" encoding="UTF-8"?>
<svg width="60px" height="60px" viewBox="0 0 60 60" version="1.1" xmlns="http://www.w3.org/2000/svg" xmlns:xlink="http://www.w3.org/1999/xlink">
    <!-- Generator: sketchtool 63.1 (101010) - https://sketch.com -->
    <title>5829FB33-9A04-424D-9071-E674ED7631C0</title>
    <desc>Created with sketchtool.</desc>
    <g id="Final" stroke="none" stroke-width="1" fill="none" fill-rule="evenodd">
        <g id="Guide-Default" transform="translate(-402.000000, -1089.000000)">
            <g id="Group-8" transform="translate(402.000000, 1089.000000)">
                <g id="Group-22">
                    <circle id="Oval" fill-opacity="0.1" fill="#5C6BDD" cx="30" cy="30" r="30"></circle>
                    <g id="Group-9" transform="translate(15.000000, 21.000000)" stroke="#5C6BDD" stroke-linecap="round" stroke-linejoin="round" stroke-width="2">
                        <path d="M17.672407,4.82467105 C17.672407,6.52105263 16.3470781,7.89473684 14.7118807,7.89473684 C13.0766833,7.89473684 11.7513544,6.52105263 11.7513544,4.82467105 L11.7513544,3.07105263 C11.7513544,1.37467105 13.0766833,-8.9928065e-14 14.7118807,-8.9928065e-14 C16.3470781,-8.9928065e-14 17.672407,1.37467105 17.672407,3.07105263 L17.672407,4.82467105 Z" id="Stroke-1"></path>
                        <path d="M8.49477544,2.96082237 C8.49477544,4.32365132 7.39049912,5.42792763 6.02767018,5.42792763 C4.66484123,5.42792763 3.56056491,4.32365132 3.56056491,2.96082237 C3.56056491,1.59799342 4.66484123,0.493717105 6.02767018,0.493717105 C7.39049912,0.493717105 8.49477544,1.59799342 8.49477544,2.96082237 Z" id="Stroke-3"></path>
                        <path d="M9.30161754,10.9943092 C8.3256307,10.2847697 7.12957807,9.86832237 5.82990702,9.86832237 C2.94931491,9.86832237 0.550301754,11.9308224 0.0174070175,14.6545066 C-0.100027193,15.2475987 0.39339386,15.789375 0.995367544,15.789375 L5.82990702,15.789375" id="Stroke-5"></path>
                        <path d="M26.6526702,2.96082237 C26.6526702,4.32365132 25.5483939,5.42792763 24.1855649,5.42792763 C22.822736,5.42792763 21.7184596,4.32365132 21.7184596,2.96082237 C21.7184596,1.59799342 22.822736,0.493717105 24.1855649,0.493717105 C25.5483939,0.493717105 26.6526702,1.59799342 26.6526702,2.96082237 Z" id="Stroke-3"></path>
                        <path d="M29.8279333,10.9943092 C28.8519465,10.2847697 27.6558939,9.86832237 26.3562228,9.86832237 C23.4756307,9.86832237 21.0766175,11.9308224 20.5437228,14.6545066 C20.4262886,15.2475987 20.9197096,15.789375 21.5216833,15.789375 L26.3562228,15.789375" id="Stroke-5" transform="translate(25.177125, 12.828849) scale(-1, 1) translate(-25.177125, -12.828849) "></path>
                        <path d="M14.7118807,10.8555592 L14.7118807,10.8555592 C10.7329333,10.8555592 7.44082807,13.7993092 6.89609123,17.6282566 C6.81220965,18.2203618 7.28392018,18.7502961 7.88194649,18.7502961 L21.5418149,18.7502961 C22.1398412,18.7502961 22.6115518,18.2203618 22.5276702,17.6282566 C21.9829333,13.7993092 18.6908281,10.8555592 14.7118807,10.8555592 Z" id="Stroke-7"></path>
                    </g>
                </g>
            </g>
        </g>
    </g>
</svg>