<?xml version="1.0" encoding="UTF-8"?>
<svg width="60px" height="60px" viewBox="0 0 60 60" version="1.1" xmlns="http://www.w3.org/2000/svg" xmlns:xlink="http://www.w3.org/1999/xlink">
    <!-- Generator: sketchtool 63.1 (101010) - https://sketch.com -->
    <title>7C9CF0A8-9184-4A73-AADD-84D017256D15</title>
    <desc>Created with sketchtool.</desc>
    <g id="Final" stroke="none" stroke-width="1" fill="none" fill-rule="evenodd">
        <g id="Guide-Default" transform="translate(-402.000000, -1295.000000)">
            <g id="Group-8" transform="translate(402.000000, 1295.000000)">
                <g id="Group-24">
                    <circle id="Oval" fill-opacity="0.1" fill="#5C6BDD" cx="30" cy="30" r="30"></circle>
                    <g id="Group-25" transform="translate(15.000000, 15.000000)">
                        <g id="Group-11" stroke="#5C6BDD" stroke-linecap="round" stroke-linejoin="round" stroke-width="2">
                            <path d="M18.273875,3.516875 L17.246375,0.625625 L12.753875,0.625625 L11.726375,3.516875 C10.830125,3.755625 9.981375,4.114375 9.192625,4.556875 L6.431375,3.241875 C4.838875,4.836875 4.836375,4.839375 3.242625,6.431875 L4.556375,9.193125 C4.113875,9.981875 3.756375,10.830625 3.516375,11.725625 L0.625125,12.754375 L0.625125,17.245625 L3.516375,18.274375 C3.756375,19.169375 4.113875,20.018125 4.556375,20.806875 L3.242625,23.568125 C4.836375,25.160625 4.838875,25.163125 6.431375,26.758125 L9.192625,25.443125 C9.981375,25.886875 10.830125,26.244375 11.726375,26.483125 L12.753875,29.375625 L17.246375,29.375625 L18.273875,26.483125 C19.170125,26.244375 20.018875,25.886875 20.806375,25.443125 L23.567625,26.758125 C25.161375,25.163125 25.163875,25.160625 26.757625,23.568125 L25.442625,20.806875 C25.886375,20.018125 26.243875,19.169375 26.482625,18.274375 L29.375125,17.245625 L29.375125,12.754375 L26.482625,11.725625 C26.243875,10.830625 25.886375,9.981875 25.442625,9.193125 L26.757625,6.431875 C25.163875,4.839375 25.161375,4.836875 23.567625,3.241875 L20.806375,4.556875 C20.018875,4.114375 19.170125,3.755625 18.273875,3.516875 Z" id="Stroke-1"></path>
                            <path d="M23.75,15 C23.75,19.8325 19.8325,23.75 15,23.75 C10.1675,23.75 6.25,19.8325 6.25,15 C6.25,10.1675 10.1675,6.25 15,6.25 C19.8325,6.25 23.75,10.1675 23.75,15 Z" id="Stroke-3"></path>
                            <line x1="7.5" y1="18.75" x2="15" y2="15" id="Stroke-5"></line>
                            <line x1="22.5" y1="18.75" x2="15" y2="15" id="Stroke-7"></line>
                            <line x1="15" y1="6.25" x2="15" y2="15" id="Stroke-9"></line>
                        </g>
                        <rect id="Rectangle-Copy-9" fill="#FFFFFF" opacity="0.01" x="0" y="0" width="30" height="30"></rect>
                    </g>
                </g>
            </g>
        </g>
    </g>
</svg>