<?xml version="1.0" encoding="UTF-8"?>
<svg width="60px" height="60px" viewBox="0 0 60 60" version="1.1" xmlns="http://www.w3.org/2000/svg" xmlns:xlink="http://www.w3.org/1999/xlink">
    <!-- Generator: sketchtool 63.1 (101010) - https://sketch.com -->
    <title>71E017DE-32B6-4059-8238-6AF9AE927708</title>
    <desc>Created with sketchtool.</desc>
    <g id="Final" stroke="none" stroke-width="1" fill="none" fill-rule="evenodd">
        <g id="Guide-Default" transform="translate(-402.000000, -686.000000)">
            <g id="Group-8" transform="translate(402.000000, 686.000000)">
                <g id="Group-20">
                    <circle id="Oval" fill-opacity="0.1" fill="#5C6BDD" cx="30" cy="30" r="30"></circle>
                    <g id="Group-23" transform="translate(15.000000, 15.000000)">
                        <rect id="Rectangle-Copy-8" fill-opacity="0.01" fill="#FFFFFF" x="0" y="0" width="30" height="30"></rect>
                        <g id="Group-19" stroke="#5C6BDD" stroke-linecap="round" stroke-linejoin="round" stroke-width="2">
                            <path d="M21.538125,17.112375 L27.375625,22.949875 C28.349375,23.937375 28.349375,25.512375 27.375625,26.487375 L26.488125,27.374875 C25.513125,28.349875 23.938125,28.349875 22.950625,27.374875 L17.113125,21.537375" id="Stroke-1"></path>
                            <path d="M8.461875,12.887625 L2.624375,7.050125 C1.650625,6.062625 1.650625,4.487625 2.624375,3.512625 L3.511875,2.625125 C4.486875,1.650125 6.061875,1.650125 7.049375,2.625125 L12.886875,8.462625" id="Stroke-3"></path>
                            <path d="M17.113,8.4625 L22.9505,2.625 C23.938,1.65 25.513,1.65 26.488,2.625 L27.3755,3.5125 C28.34925,4.4875 28.34925,6.0625 27.3755,7.05 L21.538,12.8875" id="Stroke-5"></path>
                            <path d="M8.461875,17.112375 L2.624375,22.949875 C1.650625,23.937375 1.650625,25.512375 2.624375,26.487375 L3.511875,27.374875 C4.486875,28.349875 6.061875,28.349875 7.049375,27.374875 L12.886875,21.537375" id="Stroke-7"></path>
                            <path d="M7.29975,2.87475 C9.52475,1.44975 12.1635,0.62475 14.99975,0.62475 C17.83725,0.62475 20.47475,1.44975 22.69975,2.87475" id="Stroke-9"></path>
                            <path d="M7.29975,27.12525 C9.52475,28.55025 12.1635,29.37525 14.99975,29.37525 C17.83725,29.37525 20.47475,28.55025 22.69975,27.12525" id="Stroke-11"></path>
                            <path d="M2.87475,22.70025 C1.44975,20.47525 0.62475,17.83775 0.62475,15.00025 C0.62475,12.16275 1.44975,9.52525 2.87475,7.30025" id="Stroke-13"></path>
                            <path d="M27.12525,7.29975 C28.55025,9.52475 29.37525,12.16225 29.37525,14.99975 C29.37525,17.83725 28.55025,20.47475 27.12525,22.69975" id="Stroke-15"></path>
                            <path d="M21.875,15 C21.875,18.7975 18.7975,21.875 15,21.875 C11.2025,21.875 8.125,18.7975 8.125,15 C8.125,11.2025 11.2025,8.125 15,8.125 C18.7975,8.125 21.875,11.2025 21.875,15 Z" id="Stroke-17"></path>
                        </g>
                    </g>
                </g>
            </g>
        </g>
    </g>
</svg>