<?xml version="1.0" standalone="no"?>
<!DOCTYPE svg PUBLIC "-//W3C//DTD SVG 20010904//EN"
 "http://www.w3.org/TR/2001/REC-SVG-20010904/DTD/svg10.dtd">
<svg version="1.0" xmlns="http://www.w3.org/2000/svg"
 width="401.000000pt" height="386.000000pt" viewBox="0 0 401.000000 386.000000"
 preserveAspectRatio="xMidYMid meet">

<g transform="translate(0.000000,386.000000) scale(0.100000,-0.100000)"
fill="#000000" stroke="none">
<path d="M1971 3184 c-22 -16 -57 -81 -48 -91 3 -2 14 1 24 8 13 7 26 8 35 3
19 -11 98 -82 98 -89 0 -2 -20 -16 -45 -31 -25 -14 -45 -28 -45 -32 0 -3 8
-23 18 -43 26 -57 62 -49 62 14 0 12 11 36 25 52 l25 30 20 -25 c12 -16 18
-34 15 -47 -3 -13 -1 -23 5 -23 5 0 10 6 10 14 0 8 6 16 13 19 8 3 12 28 11
80 -2 89 -22 133 -74 159 -44 23 -118 23 -149 2z"/>
<path d="M1912 3017 c-9 -11 -10 -17 -2 -22 15 -9 23 -1 18 21 -3 15 -4 16
-16 1z"/>
<path d="M1915 2960 c-3 -5 -1 -10 4 -10 6 0 11 5 11 10 0 6 -2 10 -4 10 -3 0
-8 -4 -11 -10z"/>
<path d="M2081 2848 c9 -7 19 -20 23 -28 3 -8 4 -4 3 10 -1 16 -9 26 -22 28
-18 3 -18 3 -4 -10z"/>
<path d="M2651 2817 c9 -7 87 -52 173 -102 186 -106 196 -117 196 -224 0 -41
4 -71 10 -71 18 0 12 138 -7 168 -21 33 -63 71 -80 72 -7 0 -13 4 -13 9 0 5
-10 13 -22 17 -12 3 -51 25 -87 47 -119 72 -222 123 -170 84z"/>
<path d="M2081 2754 c0 -11 3 -14 6 -6 3 7 2 16 -1 19 -3 4 -6 -2 -5 -13z"/>
<path d="M2128 2712 c-49 -38 -58 -52 -34 -52 7 0 19 -7 26 -15 10 -12 9 -20
-4 -40 -20 -30 -11 -32 28 -6 27 18 29 24 30 85 1 36 1 66 1 66 0 -1 -21 -18
-47 -38z"/>
<path d="M1880 2706 c-12 -26 -20 -31 -45 -28 -35 2 -75 -16 -75 -35 0 -16 86
-73 111 -73 32 0 39 23 31 97 l-7 71 -15 -32z"/>
<path d="M860 2502 c0 -5 10 -21 21 -36 13 -16 18 -31 13 -36 -6 -6 -17 3 -29
20 -11 17 -23 30 -27 30 -16 0 -7 -28 17 -50 29 -27 26 -34 -24 -60 -41 -20
-62 -60 -33 -60 19 0 133 66 144 84 12 17 10 21 -28 68 -37 44 -54 57 -54 40z"/>
<path d="M1060 2480 c0 -11 33 -30 52 -30 7 1 3 9 -11 20 -25 22 -41 26 -41
10z"/>
<path d="M1305 2460 c-7 -12 33 -49 52 -50 13 0 8 25 -10 48 -11 15 -33 16
-42 2z"/>
<path d="M747 2424 c-11 -11 3 -24 18 -18 8 4 12 10 9 15 -6 11 -18 12 -27 3z"/>
<path d="M1960 2410 c-15 -27 -5 -41 52 -79 93 -60 211 -88 251 -58 13 10 15
19 8 50 -5 20 -16 48 -25 62 -15 23 -17 23 -51 10 -52 -23 -124 -19 -179 9
-44 22 -47 23 -56 6z"/>
<path d="M1260 2388 c0 -37 14 -50 26 -24 9 19 7 25 -8 35 -15 10 -18 8 -18
-11z"/>
<path d="M781 2381 c-7 -5 -9 -11 -5 -14 5 -3 15 1 22 9 14 16 5 18 -17 5z"/>
<path d="M2650 2347 c3 -3 17 -12 30 -19 143 -76 286 -167 308 -197 25 -32 27
-42 30 -158 4 -150 22 -156 22 -6 0 94 -3 110 -25 152 -23 41 -41 55 -175 134
-128 76 -209 116 -190 94z"/>
<path d="M575 2318 c-21 -18 -26 -32 -27 -70 0 -38 5 -54 32 -87 36 -46 49
-50 68 -20 10 16 17 18 25 10 6 -6 25 -11 42 -11 l30 1 -22 18 c-31 26 -31
107 0 115 21 5 21 6 -8 36 -37 39 -100 42 -140 8z"/>
<path d="M1378 2311 c-3 -20 0 -31 8 -31 19 0 26 32 11 48 -13 12 -15 9 -19
-17z"/>
<path d="M1110 2320 c8 -5 20 -10 25 -10 6 0 3 5 -5 10 -8 5 -19 10 -25 10 -5
0 -3 -5 5 -10z"/>
<path d="M1160 2290 c8 -5 20 -10 25 -10 6 0 3 5 -5 10 -8 5 -19 10 -25 10 -5
0 -3 -5 5 -10z"/>
<path d="M1289 2216 c11 -12 51 -29 51 -21 0 2 -14 10 -31 19 -23 12 -28 12
-20 2z"/>
<path d="M1370 2170 c8 -5 20 -10 25 -10 6 0 3 5 -5 10 -8 5 -19 10 -25 10 -5
0 -3 -5 5 -10z"/>
<path d="M1475 2120 c-19 -8 -19 -9 3 -9 12 -1 22 4 22 9 0 6 -1 10 -2 9 -2 0
-12 -4 -23 -9z"/>
<path d="M512 2100 c-19 -18 -22 -32 -22 -94 l0 -74 75 -43 c71 -40 91 -59 62
-59 -7 0 -63 29 -124 64 -62 35 -114 61 -117 58 -10 -10 -6 -296 4 -333 9 -33
23 -44 155 -123 130 -78 157 -101 140 -118 -3 -3 -29 3 -58 12 -28 10 -65 20
-82 24 l-30 6 25 -15 c14 -8 31 -14 39 -15 20 0 101 -40 101 -49 0 -4 -17 -17
-37 -28 -21 -12 -60 -43 -86 -70 -38 -38 -47 -53 -42 -71 4 -18 2 -22 -12 -20
-24 4 -24 -31 -1 -46 14 -8 22 -7 35 7 15 14 16 21 5 37 -10 17 -8 24 15 51
15 17 58 51 95 75 l67 45 42 -21 c23 -12 63 -45 90 -73 48 -51 48 -51 28 -70
-19 -18 -19 -20 -3 -38 22 -24 41 -24 54 1 8 15 7 26 -1 43 -25 46 -75 99
-121 129 -27 17 -48 35 -48 40 0 5 19 17 43 27 l42 19 26 -24 c31 -29 41 -30
57 -3 10 15 11 24 3 32 -16 16 -14 42 4 57 8 7 20 30 25 52 19 67 34 41 41
-68 7 -105 15 -144 33 -156 16 -11 56 -10 56 2 0 6 8 10 18 10 27 0 102 57
102 76 0 14 -8 16 -49 11 -39 -5 -51 -3 -55 9 -3 9 -6 75 -6 147 -1 224 -16
252 -122 221 -14 -4 -18 0 -18 18 0 13 -7 33 -15 44 -10 16 -12 30 -5 55 33
127 31 166 -6 175 -33 8 -41 0 -48 -51 -4 -25 -11 -45 -15 -45 -9 0 -61 54
-61 64 0 4 7 14 16 23 28 28 0 38 -114 38 -106 0 -107 0 -120 28 -16 33 -49
36 -80 7z m352 -279 c3 -4 -6 -13 -20 -19 -20 -10 -26 -9 -30 3 -4 8 -3 22 0
30 4 12 10 14 25 5 11 -5 22 -14 25 -19z m-4 -390 c0 -13 -12 -22 -45 -31 -25
-7 -48 -17 -51 -21 -8 -14 -34 -11 -34 4 0 11 90 62 118 65 6 1 12 -6 12 -17z"/>
<path d="M1000 2059 c0 -5 5 -7 10 -4 6 3 10 8 10 11 0 2 -4 4 -10 4 -5 0 -10
-5 -10 -11z"/>
<path d="M1588 1993 c-32 -20 -58 -41 -58 -47 0 -6 18 -21 40 -34 l40 -22 40
25 c22 14 44 25 49 25 5 0 14 6 20 13 8 11 2 21 -29 45 -21 18 -40 32 -42 31
-2 -1 -29 -17 -60 -36z"/>
<path d="M1376 1904 c-34 -33 -11 -120 30 -112 15 3 20 13 22 57 2 37 -1 57
-10 62 -18 12 -24 11 -42 -7z"/>
<path d="M1252 1894 c-33 -23 -27 -38 8 -17 17 9 30 21 30 25 0 12 -13 10 -38
-8z"/>
<path d="M1708 1863 c-2 -5 -1 -75 2 -158 l5 -150 7 100 c11 136 10 215 -1
215 -6 0 -11 -3 -13 -7z"/>
<path d="M1321 1483 l2 -188 11 178 c9 138 14 180 26 187 12 8 9 10 -12 10
l-28 0 1 -187z"/>
<path d="M2370 1623 c0 -5 9 -19 20 -33 34 -43 21 -58 -14 -16 -20 23 -36 34
-40 28 -3 -6 8 -24 25 -40 36 -34 34 -43 -17 -67 -38 -18 -54 -14 -35 9 10 12
9 14 -8 9 -16 -4 -19 -9 -11 -23 6 -10 10 -28 10 -39 0 -28 5 -27 79 17 89 52
92 60 46 116 -34 42 -55 57 -55 39z"/>
<path d="M2585 1590 c10 -11 25 -20 33 -20 12 0 12 4 -3 20 -10 11 -25 20 -33
20 -12 0 -12 -4 3 -20z"/>
<path d="M2260 1534 c0 -8 5 -12 10 -9 6 3 10 10 10 16 0 5 -4 9 -10 9 -5 0
-10 -7 -10 -16z"/>
<path d="M2110 1451 c0 -5 9 -13 20 -16 11 -4 28 -17 36 -30 13 -21 14 -29 3
-60 -16 -44 -1 -63 57 -71 38 -5 39 -5 17 12 -16 11 -23 27 -23 51 0 38 -12
67 -43 101 -20 22 -67 31 -67 13z"/>
<path d="M2600 1456 c0 -2 7 -7 16 -10 8 -3 12 -2 9 4 -6 10 -25 14 -25 6z"/>
<path d="M2660 1420 c8 -5 20 -10 25 -10 6 0 3 5 -5 10 -8 5 -19 10 -25 10 -5
0 -3 -5 5 -10z"/>
<path d="M485 1382 c-11 -12 -4 -32 16 -43 17 -9 25 -8 36 4 9 8 13 19 9 25
-7 11 -53 22 -61 14z"/>
<path d="M1780 1382 c0 -5 7 -16 16 -23 14 -12 16 -11 13 5 -4 20 -29 35 -29
18z"/>
<path d="M2800 1336 c0 -2 9 -6 20 -9 11 -3 18 -1 14 4 -5 9 -34 13 -34 5z"/>
<path d="M1580 1310 c0 -22 122 -38 164 -21 16 6 17 9 6 16 -19 12 -170 16
-170 5z"/>
<path d="M2870 1300 c8 -5 20 -10 25 -10 6 0 3 5 -5 10 -8 5 -19 10 -25 10 -5
0 -3 -5 5 -10z"/>
<path d="M2920 1270 c8 -5 20 -10 25 -10 6 0 3 5 -5 10 -8 5 -19 10 -25 10 -5
0 -3 -5 5 -10z"/>
<path d="M2971 1239 c18 -11 39 -11 39 0 0 5 -12 9 -26 9 -18 0 -22 -3 -13 -9z"/>
<path d="M2033 1221 c-20 -17 -23 -29 -23 -96 0 -49 4 -74 10 -70 6 4 9 14 8
22 -2 9 2 18 8 20 6 2 17 -16 23 -39 10 -34 21 -48 52 -66 36 -21 51 -42 29
-42 -5 0 -56 27 -113 60 -57 32 -111 62 -120 66 -15 6 -17 -9 -17 -157 0 -112
4 -172 13 -189 8 -15 65 -57 147 -107 129 -78 162 -104 148 -118 -3 -4 -27 1
-52 9 -26 9 -61 15 -79 15 l-32 -1 35 -8 c43 -9 107 -36 115 -49 3 -5 -20 -26
-50 -46 -66 -44 -118 -103 -111 -127 3 -13 -2 -18 -15 -18 -28 0 -24 -34 7
-50 22 -12 27 -12 35 0 5 8 7 29 4 45 -4 26 1 37 32 67 21 20 63 51 92 68 54
31 56 31 89 16 41 -20 142 -114 142 -132 0 -8 -6 -14 -14 -14 -22 0 -26 -27
-7 -44 10 -9 23 -16 29 -16 12 0 32 31 32 48 0 20 -83 114 -131 149 -45 32
-49 37 -35 51 34 34 135 1 151 -49 5 -15 10 -18 20 -9 10 9 20 7 39 -5 29 -19
70 -14 80 10 5 15 -11 24 -95 55 -23 8 -39 22 -46 40 -12 33 -74 50 -102 28
-37 -30 -80 -48 -87 -37 -8 13 6 23 66 46 25 9 59 26 75 38 17 12 42 27 57 35
42 20 68 48 62 65 -4 8 -10 15 -14 15 -4 0 -24 13 -44 29 -23 19 -32 31 -24
34 11 4 11 6 0 6 -7 1 -39 -10 -72 -24 -33 -14 -73 -25 -90 -25 -29 0 -30 1
-16 16 20 19 20 28 1 44 -17 14 -20 50 -5 50 6 0 10 24 10 54 0 48 15 116 26
116 16 0 53 -58 49 -76 -4 -19 2 -23 41 -33 53 -14 70 -6 37 16 -30 20 -29 35
5 75 16 18 37 48 48 66 16 29 17 34 4 42 -11 7 -26 -1 -57 -32 -24 -23 -45
-39 -48 -37 -3 3 -16 28 -30 55 l-25 49 28 22 c15 12 33 22 40 23 15 0 15 15
0 39 -9 16 -15 17 -32 7 -11 -6 -26 -17 -34 -23 -9 -9 -36 -11 -90 -7 -62 5
-82 11 -103 30 -30 29 -47 30 -76 5z"/>
<path d="M2508 1183 c7 -3 16 -2 19 1 4 3 -2 6 -13 5 -11 0 -14 -3 -6 -6z"/>
<path d="M3057 1133 c-33 -19 -55 -38 -50 -43 4 -4 28 -18 52 -31 l43 -24 57
31 c31 17 56 37 56 44 0 14 -71 60 -90 59 -5 0 -36 -16 -68 -36z"/>
<path d="M2762 1020 c-23 -19 -28 -30 -13 -30 16 0 55 37 45 42 -5 4 -19 -2
-32 -12z"/>
<path d="M3224 988 c-5 -7 -7 -85 -4 -173 l5 -160 7 140 c4 77 10 155 14 173
7 33 -6 43 -22 20z"/>
<path d="M2831 613 l2 -178 8 140 c5 77 13 157 18 178 8 33 7 37 -10 37 -18 0
-19 -9 -18 -177z"/>
<path d="M3072 508 c-18 -18 -15 -27 8 -21 11 3 20 12 20 19 0 17 -12 18 -28
2z"/>
<path d="M1990 498 c0 -8 9 -23 20 -33 16 -15 22 -15 35 -5 18 15 20 40 3 40
-7 0 -23 3 -35 6 -16 5 -23 2 -23 -8z"/>
<path d="M3228 448 c-7 -4 -29 -7 -49 -6 -19 1 -44 -4 -54 -9 -17 -10 -17 -11
4 -18 53 -17 190 2 176 25 -7 11 -62 18 -77 8z"/>
</g>
</svg>
