<?xml version="1.0" standalone="no"?>
<!DOCTYPE svg PUBLIC "-//W3C//DTD SVG 20010904//EN"
 "http://www.w3.org/TR/2001/REC-SVG-20010904/DTD/svg10.dtd">
<svg version="1.0" xmlns="http://www.w3.org/2000/svg"
 width="440.000000pt" height="385.000000pt" viewBox="0 0 440.000000 385.000000"
 preserveAspectRatio="xMidYMid meet">

<g transform="translate(0.000000,385.000000) scale(0.100000,-0.100000)"
fill="#000000" stroke="none">
<path d="M2377 3252 c-35 -24 -72 -74 -93 -127 -25 -66 -16 -386 14 -475 11
-36 24 -77 27 -92 3 -15 12 -33 20 -42 8 -8 15 -19 15 -25 0 -8 -252 -11 -848
-11 -810 0 -850 -1 -865 -18 -16 -17 -17 -97 -17 -944 l0 -926 -105 -78 c-58
-44 -105 -84 -105 -91 0 -7 11 -25 24 -40 l24 -28 1732 0 1732 0 24 29 c14 15
23 33 21 40 -2 6 -49 46 -105 89 l-102 78 0 925 c0 911 0 924 -20 944 -19 19
-33 20 -545 20 -294 0 -525 4 -525 9 0 5 6 14 14 20 8 7 18 26 21 42 4 17 18
58 32 92 23 55 25 75 24 182 -1 65 -3 120 -4 121 -1 1 -16 6 -32 9 -28 7 -29
6 -11 -7 16 -12 18 -23 13 -59 -3 -24 -11 -45 -16 -47 -6 -2 -11 -8 -11 -14 0
-5 9 -6 20 -3 19 6 20 3 14 -22 -17 -68 -74 -154 -74 -110 0 23 -43 55 -89 67
-75 20 -177 -6 -201 -50 -16 -30 -26 -25 -48 28 -36 85 -37 96 -13 89 11 -3
21 -1 21 4 0 5 -4 9 -9 9 -9 0 -20 77 -14 96 2 6 19 14 36 17 54 9 93 27 78
36 -16 10 -48 3 -76 -16 -23 -15 -45 -17 -45 -4 0 6 25 37 56 70 37 40 69 65
94 72 36 11 41 9 115 -36 130 -78 199 -93 250 -53 25 20 27 26 23 78 -2 32
-12 69 -21 84 -15 23 -24 26 -71 26 -31 0 -94 13 -151 30 -113 35 -187 39
-228 12z m213 -572 c0 -6 -15 -18 -34 -27 -29 -13 -39 -14 -65 -3 -54 22 -39
40 34 40 37 0 65 -4 65 -10z m-110 -233 c42 -7 69 -6 112 5 53 14 57 14 61 -4
4 -15 13 -18 41 -16 29 2 43 -4 69 -30 l33 -32 442 0 442 0 0 -770 0 -770
-1480 0 -1480 0 0 770 0 770 761 0 c736 0 762 1 788 19 15 11 47 21 72 23 40
3 44 6 47 31 3 22 7 27 20 21 9 -4 42 -12 72 -17z m-260 -22 c0 -13 -6 -25
-12 -28 -22 -7 -38 4 -38 28 0 13 6 25 13 28 21 7 37 -4 37 -28z m235 -1700
c0 -19 -7 -20 -205 -22 -113 -2 -211 1 -219 6 -8 5 -11 16 -8 25 6 15 31 16
219 14 205 -3 213 -4 213 -23z"/>
<path d="M2787 2267 c-79 -129 -139 -222 -152 -236 -12 -12 -21 -10 -61 17
l-48 31 -42 -30 c-49 -33 -60 -31 -91 14 -13 18 -31 42 -40 53 -10 10 -49 58
-88 106 l-69 87 -31 -18 c-16 -10 -60 -34 -96 -54 -69 -38 -79 -51 -120 -157
-45 -119 -83 -210 -88 -210 -3 0 -26 25 -51 55 -25 30 -48 55 -52 55 -15 0
-163 -113 -166 -126 -6 -24 198 -383 238 -419 30 -27 99 -27 137 1 15 11 38
38 50 60 24 42 63 160 63 191 0 11 6 27 13 37 12 16 15 -20 20 -239 4 -142 7
-323 7 -402 l0 -143 400 0 400 0 2 278 c2 173 7 276 13 275 5 -1 22 -53 37
-115 15 -62 32 -129 38 -148 9 -31 54 -209 67 -267 5 -22 9 -23 129 -23 68 0
124 3 124 8 0 9 -57 295 -69 347 -5 22 -16 72 -25 110 -33 154 -89 394 -108
465 -11 41 -26 98 -33 125 -18 67 -43 140 -67 196 -17 42 -27 50 -107 93 -49
25 -90 46 -92 46 -2 0 -21 -28 -42 -63z"/>
<path d="M960 2120 c0 -6 88 -10 245 -10 157 0 245 4 245 10 0 6 -88 10 -245
10 -157 0 -245 -4 -245 -10z"/>
<path d="M960 2008 c0 -5 110 -8 245 -8 135 0 245 3 245 8 0 4 -110 7 -245 7
-135 0 -245 -3 -245 -7z"/>
<path d="M960 1890 c0 -6 40 -10 100 -10 60 0 100 4 100 10 0 6 -40 10 -100
10 -60 0 -100 -4 -100 -10z"/>
<path d="M2610 2982 c0 -12 79 -37 88 -28 11 12 -29 36 -60 36 -15 0 -28 -4
-28 -8z"/>
<path d="M2468 2950 c19 -8 22 -17 22 -60 0 -27 -4 -50 -10 -50 -5 0 -10 -4
-10 -10 0 -5 7 -7 14 -4 9 3 16 23 18 47 2 34 7 42 23 42 16 0 21 -8 23 -42 2
-24 9 -44 18 -47 16 -6 19 9 4 19 -16 10 -12 77 7 97 15 17 15 18 -1 18 -9 0
-19 -7 -22 -15 -4 -8 -14 -15 -24 -15 -10 0 -23 7 -30 15 -7 8 -22 15 -34 14
-21 0 -21 0 2 -9z"/>
<path d="M2395 2919 c-12 -19 4 -61 23 -57 22 4 27 34 8 53 -17 18 -23 19 -31
4z"/>
<path d="M2605 2920 c-11 -17 4 -60 21 -60 8 0 17 7 21 16 11 29 -27 69 -42
44z"/>
</g>
</svg>
